<?xml version="1.0" encoding="utf-8" ?><svg xmlns="http://www.w3.org/2000/svg" xmlns:xlink="http://www.w3.org/1999/xlink" width="1365" height="1024" viewBox="0 0 1365 1024"><path fill="#1F2C60" d="M551.378 184.987C574.289 170.249 598.559 156.154 621.959 142.069C659.263 119.427 696.702 97.0076 734.273 74.8111L795.386 38.2024C805.531 32.053 818.135 23.8564 828.326 18.2977C852.112 30.665 881.697 49.1374 905.356 62.917L1044.23 143.898L1346.7 320.682L1191.84 412.903C1166.2 428.311 1141.06 444.582 1115.17 459.53L1246.12 533.067C1278.36 551.419 1312.59 571.631 1345.36 588.741C1282.96 627.34 1217.97 664.009 1155.39 702.461C1134.1 715.54 1109.04 728.584 1088.55 741.98C1085.35 774.327 1091.54 780.228 1102.2 808.952C1108.85 827.138 1114.95 845.523 1120.48 864.082C1123.42 873.911 1127.15 885.945 1128.91 895.891L1123.8 899.344C1128.88 915.151 1133.74 916.345 1139.54 928.515C1149.09 930.766 1159.73 933.246 1167.56 939.503C1169.9 941.373 1172.24 943.997 1172.44 947.138C1172.59 949.478 1171.47 951.623 1169.95 953.322C1156.69 968.121 1105.4 973.953 1086.47 975.536C1047.67 978.78 946.953 980.43 917.308 954.758C914.902 952.675 912.501 949.779 912.412 946.44C912.334 943.539 913.84 941.013 915.737 938.942C931.111 922.155 975.368 917.36 997.102 916.57C996.63 910.407 992.76 909.195 992.669 904.623C991.945 868.178 986.718 832.922 982.415 796.833C977.637 798.544 963.886 807.304 958.948 810.299L909.617 840.43L732.526 948.033L673.497 984.532C664.264 990.26 650.765 999.281 641.521 1004C620.154 993.039 597.567 979.476 576.623 967.487L481.849 913.446L272.198 793.74C227.491 768.156 184.267 742.847 139.232 717.729C152.204 709.309 168.204 700.823 181.841 692.97C205.042 679.578 228.159 666.043 251.193 652.364C242.783 647.12 231.411 641.077 222.541 635.909C199.06 622.057 175.468 608.395 151.767 594.924C125.136 579.636 98.4164 564.505 71.6086 549.531C54.3365 539.794 37.1629 529.727 19.6142 520.501C36.2304 509.376 60.3928 495.959 77.9025 485.496L178.434 425.066C202.033 411.118 227.818 396.923 250.765 382.275C244.582 378.235 237.387 374.041 230.892 370.508C194.88 350.919 159.789 329.317 124.083 309.302C130.094 305.625 136.864 301.641 143.039 298.3C191.341 272.166 238.588 239.591 287.221 214.521C288.022 205.605 291.221 190.197 294.176 181.604C303.009 155.917 313.058 149.602 335.388 138.412C335.803 131.927 335.43 125.669 335.173 119.181C329.832 117.754 325.05 116.977 321.591 112.182C319.252 109.824 315.744 98.9303 314.013 97.2368C293.351 77.0343 306.727 61.5242 327.889 50.315C335.998 46.0198 342.515 48.47 351.611 51.9961C369.469 47.0054 390.907 49.9625 390.551 74.4784C390.502 77.8714 388.956 81.4897 387.512 84.5591C392.283 97.0906 393.186 106.664 390.628 119.775C405.632 112.363 422.399 100.778 438.786 92.4415C443.24 82.5795 447.385 74.6038 455.95 67.5233C489.916 39.4446 562.575 43.2599 580.45 88.4232C590.244 113.168 563.503 139.1 541.96 145.6C525.353 150.94 510.546 151.549 493.522 150.441C505.806 160.228 536.88 177.114 551.378 184.987ZM948.306 563.33C934.361 556.123 920.189 549.365 905.812 543.066C904.122 544.737 902.357 546.222 900.563 547.777L898.311 548.616C903.075 553.141 908.29 556.699 913.043 560.901L915.563 559.919C925.961 568.559 944.409 585.129 956.821 589.304C971.558 582.498 984.207 565.914 995.604 554.567C1001.03 549.164 1004.93 544.115 1012.05 540.386C1007.65 548.776 1001.73 553.837 995.088 560.514C995.112 571.747 994.771 587.855 996.544 598.573C1007.92 606.77 1011.64 605.026 1023.23 609.105C1022.64 611.277 1021.68 614.193 1021.73 616.386C1022.14 632.901 997.555 615.945 990.487 611.378C975.595 638.783 971.31 646.925 970.727 678.483C970.278 677.25 969.194 663.127 969.05 661.099C964.746 684.104 974.029 737.783 977.177 763.119C977.722 767.511 980.046 782.698 981.088 786.651C981.55 789.942 982.131 793.552 982.415 796.833C986.718 832.922 991.945 868.178 992.669 904.623C992.76 909.195 996.63 910.407 997.102 916.57C975.368 917.36 931.111 922.155 915.737 938.942C913.84 941.013 912.334 943.539 912.412 946.44C912.501 949.779 914.902 952.675 917.308 954.758C946.953 980.43 1047.67 978.78 1086.47 975.536C1105.4 973.953 1156.69 968.121 1169.95 953.322C1171.47 951.623 1172.59 949.478 1172.44 947.138C1172.24 943.997 1169.9 941.373 1167.56 939.503C1159.73 933.246 1149.09 930.766 1139.54 928.515C1133.74 916.345 1128.88 915.151 1123.8 899.344L1128.91 895.891C1127.15 885.945 1123.42 873.911 1120.48 864.082C1114.95 845.523 1108.85 827.138 1102.2 808.952C1091.54 780.228 1085.35 774.327 1088.55 741.98C1088.3 736.713 1089.23 726.717 1089.68 721.366L1087.23 719.895C1088.74 696.347 1093.09 660.409 1084.69 639.3C1082.63 634.115 1072.87 618.464 1069.55 612.884C1068.23 611.79 1061.85 616.192 1059.85 617.147C1051.37 621.096 1042.29 623.573 1032.99 624.472C1029.65 624.778 1027.21 624.797 1024.63 622.619C1024.23 620.577 1025.62 612.234 1025.95 609.683C1030.27 609.189 1039.86 607.482 1043.64 609.37C1044.39 609.746 1044.46 611.299 1044.68 612.358L1046.73 609.373C1048.53 606.762 1059.89 603.449 1063.45 602.219C1060.41 588.596 1065.05 580.483 1068.98 567.715C1076.22 544.186 1087.22 519.14 1085.31 494.109C1084.67 485.76 1079.71 480.687 1073.43 475.967C1072.56 476.872 1071.66 477.755 1070.75 478.617C1052.11 496.137 1043.84 490.817 1021.93 488.682C1004.55 486.989 994.271 504.464 983.291 515.246C973.162 529.554 962.808 543.703 952.234 557.687L948.306 563.33Z"/><path fill="#FE8D43" d="M124.083 309.302C130.094 305.625 136.864 301.641 143.039 298.3C191.341 272.166 238.588 239.591 287.221 214.521C286.613 233.366 283.546 263.691 297.416 278.511C302.818 284.283 315.853 284.941 316.421 285.937C316.755 286.522 316.808 288.711 316.881 289.443C316.418 294.123 318.357 301.899 318.345 307.06C318.317 320.097 317.99 333.215 317.57 346.235C315.57 400.454 312.886 454.645 309.52 508.796L309.202 510.83C302.377 513.809 285.669 519.546 286.458 528.148C291.982 537.484 318.017 535.15 327.882 534.145C316.334 543.22 299.476 553.915 288.544 561.358C260.925 580.162 251.373 585.546 255.179 620.534C256.69 634.423 251.587 645.735 269.804 656.231C283.569 664.46 297.472 672.457 311.219 680.665L404.563 736.347L465.886 772.649C490.446 787.235 507.396 800.411 536.53 803.671C573.281 807.783 597.189 787.627 624.992 768.076L677.875 730.912C721.783 700.42 765.488 669.637 808.987 638.565C844.268 613.046 879.804 587.882 915.589 563.076C964.576 604.768 948.332 599.11 991.726 563.761C991.812 574.451 991.815 588.795 993.245 599.179C984.17 619.114 969.341 638.537 969.05 661.099C964.746 684.104 974.029 737.783 977.177 763.119C977.722 767.511 980.046 782.698 981.088 786.651C981.55 789.942 982.131 793.552 982.415 796.833C977.637 798.544 963.886 807.304 958.948 810.299L909.617 840.43L732.526 948.033L673.497 984.532C664.264 990.26 650.765 999.281 641.521 1004C620.154 993.039 597.567 979.476 576.623 967.487L481.849 913.446L272.198 793.74C227.491 768.156 184.267 742.847 139.232 717.729C152.204 709.309 168.204 700.823 181.841 692.97C205.042 679.578 228.159 666.043 251.193 652.364C242.783 647.12 231.411 641.077 222.541 635.909C199.06 622.057 175.468 608.395 151.767 594.924C125.136 579.636 98.4164 564.505 71.6086 549.531C54.3365 539.794 37.1629 529.727 19.6142 520.501C36.2304 509.376 60.3928 495.959 77.9025 485.496L178.434 425.066C202.033 411.118 227.818 396.923 250.765 382.275C244.582 378.235 237.387 374.041 230.892 370.508C194.88 350.919 159.789 329.317 124.083 309.302Z"/><path fill="#FE8D43" d="M551.378 184.987C574.289 170.249 598.559 156.154 621.959 142.069C659.263 119.427 696.702 97.0076 734.273 74.8111L795.386 38.2024C805.531 32.053 818.135 23.8564 828.326 18.2977C852.112 30.665 881.697 49.1374 905.356 62.917L1044.23 143.898L1346.7 320.682L1191.84 412.903C1166.2 428.311 1141.06 444.582 1115.17 459.53L1246.12 533.067C1278.36 551.419 1312.59 571.631 1345.36 588.741C1282.96 627.34 1217.97 664.009 1155.39 702.461C1134.1 715.54 1109.04 728.584 1088.55 741.98C1088.3 736.713 1089.23 726.717 1089.68 721.366L1087.23 719.895C1088.74 696.347 1093.09 660.409 1084.69 639.3C1082.63 634.115 1072.87 618.464 1069.55 612.884L1071.74 612.482L1071.29 610.624C1072.19 608.24 1089.28 590.47 1092.68 585.784C1097.5 579.353 1109.16 564.751 1110.12 557.133C1110.84 546.683 1106.85 531.849 1102.58 522.211C1095.56 506.351 1090.49 485.759 1076.71 474.959C1104.09 464.567 1127.46 451.059 1119.15 418.89C1118.57 416.655 1119.41 416.248 1120.75 414.685L1120.68 413.834L1119 413.27C1120.66 411.207 1131.44 404.269 1134.6 401.849C1156.13 385.312 1184.66 370.458 1203.24 351.05C1209.18 344.84 1207.4 328.006 1207.14 319.707C1206.96 313.83 1203.41 308.409 1198.43 304.729L1200.47 304.294L1199.22 301.357C1189.05 288.892 1153.6 268.959 1139.11 260.189L1062.63 214.091C1039.18 199.666 1015.65 185.386 992.023 171.252C971.336 158.746 948.658 141.969 924.313 138.757C908.827 136.74 893.1 139.637 879.349 147.04C865.895 154.165 837.389 175.896 823.672 185.616L711.953 264.64L506.308 409.916C475.931 431.44 440.216 454.937 411.257 477.211C411.83 456.222 414.546 434.672 415.894 413.706C419.384 359.467 425.205 305.192 426.345 250.884L425.149 251.197C424.503 255.892 425.126 265.147 424.407 268.588C410.44 293.761 349.101 306.01 323.044 293.683C320.739 292.593 319.42 290.999 318.402 288.718L316.881 289.443C316.808 288.711 316.755 286.522 316.421 285.937C315.853 284.941 302.818 284.283 297.416 278.511C283.546 263.691 286.613 233.366 287.221 214.521C288.022 205.605 291.221 190.197 294.176 181.604C303.009 155.917 313.058 149.602 335.388 138.412C335.803 131.927 335.43 125.669 335.173 119.181C329.832 117.754 325.05 116.977 321.591 112.182C319.252 109.824 315.744 98.9303 314.013 97.2368C293.351 77.0343 306.727 61.5242 327.889 50.315C335.998 46.0198 342.515 48.47 351.611 51.9961C369.469 47.0054 390.907 49.9625 390.551 74.4784C390.502 77.8714 388.956 81.4897 387.512 84.5591C392.283 97.0906 393.186 106.664 390.628 119.775C405.632 112.363 422.399 100.778 438.786 92.4415C443.24 82.5795 447.385 74.6038 455.95 67.5233C489.916 39.4446 562.575 43.2599 580.45 88.4232C590.244 113.168 563.503 139.1 541.96 145.6C525.353 150.94 510.546 151.549 493.522 150.441C505.806 160.228 536.88 177.114 551.378 184.987Z"/><path fill="#1F2C60" d="M335.173 119.181C329.832 117.754 325.05 116.977 321.591 112.182C319.252 109.824 315.744 98.9303 314.013 97.2368C293.351 77.0343 306.727 61.5242 327.889 50.315C335.998 46.0198 342.515 48.47 351.611 51.9961C369.469 47.0054 390.907 49.9625 390.551 74.4784C390.502 77.8714 388.956 81.4897 387.512 84.5591C392.283 97.0906 393.186 106.664 390.628 119.775C388.141 125.964 387.367 127.164 382.455 131.654C410.131 144.018 417.491 171.548 424.564 198.467C430.908 194.289 462.501 182.463 468.886 186.594C470.133 191.508 457.844 222.091 454.258 226.923L451.411 230.778C443.113 240.531 439.38 242.775 427.097 244.607C426.313 244.724 426.353 250.075 426.345 250.884L425.149 251.197C424.503 255.892 425.126 265.147 424.407 268.588C410.44 293.761 349.101 306.01 323.044 293.683C320.739 292.593 319.42 290.999 318.402 288.718L316.881 289.443C316.808 288.711 316.755 286.522 316.421 285.937C315.853 284.941 302.818 284.283 297.416 278.511C283.546 263.691 286.613 233.366 287.221 214.521C288.022 205.605 291.221 190.197 294.176 181.604C303.009 155.917 313.058 149.602 335.388 138.412C335.803 131.927 335.43 125.669 335.173 119.181Z"/><path fill="#41D9CC" d="M423.206 246.795C423.76 253.751 423.379 261.982 424.407 268.588C410.44 293.761 349.101 306.01 323.044 293.683C320.739 292.593 319.42 290.999 318.402 288.718L318.877 285.504C319.854 284.002 320.375 283.931 322.167 283.278L397.263 256.019C406.497 252.62 413.989 251.117 423.206 246.795Z"/><path fill="#1F2C60" d="M424.564 198.467C430.908 194.289 462.501 182.463 468.886 186.594C470.133 191.508 457.844 222.091 454.258 226.923L453.863 223.417C452.038 225.727 445.775 225.871 443.36 223.208C443.048 224.066 442.748 224.755 442.38 225.59L441.586 225.402L441.054 223.353C441.529 221.587 441.687 221.447 441.449 219.591C438.933 218.435 416.397 227.338 410.617 228.819C414.831 224.171 425.305 215.66 423.643 209.168L421.196 207.937L421.391 207.595L420.58 206.562L423.897 202.445C423.948 200.347 423.587 199.874 424.564 198.467Z"/><path fill="#FEFEFE" d="M447.511 220.058L450.225 219.682L452.083 221.421L453.282 221.923L453.863 223.417C452.038 225.727 445.775 225.871 443.36 223.208L444.252 220.933L447.511 220.058Z"/><path fill="#444C7A" d="M447.511 220.058L450.225 219.682L452.083 221.421C449.559 221.36 446.791 221.109 444.252 220.933L447.511 220.058Z"/><path fill="#FEFEFE" d="M447.511 220.058L446.7 218.261C448.318 215.269 452.223 215.113 455.196 215.916L455.725 216.903C454.243 218.728 452.538 218.949 450.225 219.682L447.511 220.058Z"/><path fill="#FEFEFE" d="M454.389 202.903C456.943 202.688 456.02 202.447 458.242 203.493L458.631 204.892C455.262 210.728 453.354 206.15 447.778 209.154C446.182 211.868 448.868 210.277 448.009 213.765C444.839 215.484 429.293 220.563 424.718 222.193L419.273 223.604C423.009 218.702 424.535 216.122 426.673 210.376C435.004 206.842 445.451 204.191 454.389 202.903Z"/><path fill="#FEFEFE" d="M421.196 207.937L423.643 209.168C425.305 215.66 414.831 224.171 410.617 228.819C416.397 227.338 438.933 218.435 441.449 219.591C441.687 221.447 441.529 221.587 441.054 223.353C440.039 225.673 439.813 225.147 440.411 226.961C444.485 228.153 446.628 226.166 450.165 227.505C450.89 229.093 450.852 228.318 450.434 229.894C447.14 231.065 444.318 230.759 440.821 230.682C432.363 236.355 423.9 244.185 414.252 247.586C408.478 249.492 394.382 256.464 389.56 250.282C381.028 239.343 405.035 226.335 411.376 219.802C414.809 216.266 418.34 210.244 421.196 207.937Z"/><path fill="#FE8D43" d="M420.58 206.562L419.972 206.822L419.028 206.291C418.304 203.012 417.408 197.103 420.148 194.657C422.904 195.868 423.376 199.808 423.897 202.445L420.58 206.562Z"/><path fill="#41D9CC" d="M368.244 135.215L380.17 133.737C388.413 140.254 396.096 153.729 401.57 162.781C409.566 176.001 416.672 194.234 416.695 209.578C409.903 218.28 400.823 227.134 391.54 233.209C371.491 234.509 352.436 235.038 332.52 238.013C340.505 208.605 347.949 169.296 310.764 157.306C316.047 152.424 324.862 145.897 331.678 143.723C332.841 144.187 332.433 143.777 333.061 144.79C333.785 143.703 333.459 144.101 334.716 143.412C344.763 153.415 362.526 166.395 370.142 145.699L371.058 145.286L372.541 144.745C371.12 140.621 370.349 139.071 368.244 135.215Z"/><path fill="#41D9CC" d="M340.281 152.468C337.141 149.529 334.61 147.993 334.716 143.412C344.763 153.415 362.526 166.395 370.142 145.699L371.058 145.286C372.123 163.783 350.239 158.925 340.281 152.468Z"/><path fill="#1F2C60" d="M372.541 144.745C374.055 165.279 351.038 161.929 339.848 153.48L340.281 152.468C350.239 158.925 372.123 163.783 371.058 145.286L372.541 144.745Z"/><path fill="#246E82" d="M333.061 144.79C333.785 143.703 333.459 144.101 334.716 143.412C334.61 147.993 337.141 149.529 340.281 152.468L339.848 153.48C336.775 150.871 334.654 148.479 333.061 144.79Z"/><path fill="#09181C" d="M342.084 203.193C346.294 207.462 343.009 221.101 341.194 226.063L340.903 226.04C340.199 224.303 342.051 217.296 342.182 214.265C342.372 209.867 342.393 207.686 342.084 203.193Z"/><path fill="#09181C" d="M346.752 215.826C349.799 219.975 345.932 225.838 343.411 229.333C342.507 228.286 346.453 221.113 346.752 215.826Z"/><path fill="#41D9CC" d="M309.167 159.156C333.387 160.963 338.682 193.885 335.57 212.583C334.042 221.769 332.163 229.195 329.472 238.12C322.754 239.638 318.215 241.189 311.951 243.791C322.333 242.33 332.813 239.458 343.527 238.548C358.525 237.275 373.458 236.993 388.484 235.938C379.423 250.102 390.062 249.226 389.221 256.118C387.318 258.266 384.347 259.081 381.573 260.191C361.862 269.679 338.647 276.053 317.508 281.45C292.156 287.923 289.237 253.56 289.31 236.252C289.419 210.712 293.138 179.927 309.167 159.156Z"/><path fill="#FEFEFE" d="M374.692 69.3807C377.475 71.3685 382.108 76.8502 381.688 80.5082C380.528 82.7695 379.676 82.9884 377.483 84.2674L377.549 84.7442C380.153 85.3481 382.4 85.3071 385.062 85.3966C388.829 97.0232 392.82 113.274 385.516 124.088C375.868 138.369 357.61 131.665 346.575 124.164C342.825 121.019 341.061 118.78 337.89 115.134C335.345 112.208 331.462 114.197 327.166 114.405C322.764 112.413 321.02 107.196 322.758 102.832C327.214 98.617 329.708 100.445 334.576 102.99C343.875 93.965 346.026 89.3215 349.207 76.9003C361 77.6156 365.193 75.8802 374.692 69.3807Z"/><path fill="#1F2C60" d="M371.799 91.7942C379.147 93.1382 373.768 99.9431 379.143 106.54L375.797 106.86C372.911 104.809 374.844 99.3229 373.133 95.9174C372.905 95.464 372.03 92.5266 371.799 91.7942Z"/><path fill="#1F2C60" d="M359.861 85.4534L360.614 86.0564C359.775 87.9246 354.291 88.6932 350.001 94.3114L349.158 93.9255L348.731 92.5953C350.988 87.705 354.967 86.3364 359.861 85.4534Z"/><path fill="#1F2C60" d="M365.858 114.054C371.335 115.877 372.099 114.447 376.101 115.433L376.355 116.781C373.577 117.843 371.344 118.466 368.451 117.691C366.197 115.872 366.895 116.821 365.858 114.054Z"/><path fill="#41D9CC" d="M333.523 50.7729C340.473 50.3243 345.456 52.6272 351.673 55.2578C367.477 50.4867 386.037 50.3721 387.447 72.0914C387.623 74.7965 388.404 78.0381 386.603 80.2452C385.73 79.9083 376.733 68.0471 374.291 65.6614C364.743 73.6968 361.034 74.5389 348.478 74.5261C348.011 74.633 347.058 75.3271 346.974 75.6373C344.439 84.8987 341.737 92.0586 335.167 99.2163C326.973 96.3474 325.56 96.3731 319.88 102.992C318.322 98.6634 317.439 96.4728 314.274 93.128C296.07 73.8929 315.625 58.4607 333.523 50.7729Z"/><path fill="#FEFEFE" d="M338.181 120.264C342.808 123.507 346.728 128.343 351.542 131.613C356.13 134.729 361.754 136.201 366.323 139.169C367.298 139.803 367.903 141.567 367.855 142.67C367.696 146.336 366.786 148.764 364.363 151.42C353.814 157.092 342.507 151.111 337.478 141.091C337.874 132.876 338.344 128.615 338.181 120.264Z"/><path fill="#41D9CC" d="M385.621 136.428C399.901 140.004 420.111 178.479 419.777 192.473L417.973 192.34C415.835 190.442 414.708 184.781 413.631 181.913C407.176 164.732 396.685 150.889 385.621 136.428Z"/><path fill="#FEFEFE" d="M436.611 236.388C438.628 237.063 437.816 236.504 439.182 238.055C438.376 240.061 437.601 240.151 435.677 241.595C434.245 241.48 434.334 241.462 433.053 240.783C433.389 238.798 434.854 238.044 436.611 236.388Z"/><path fill="#1F2C60" d="M438.786 92.4415C443.24 82.5795 447.385 74.6038 455.95 67.5233C489.916 39.4446 562.575 43.2599 580.45 88.4232C590.244 113.168 563.503 139.1 541.96 145.6C525.353 150.94 510.546 151.549 493.522 150.441C480.865 147.603 476.28 146.182 464.936 140.787C453.159 146.493 446.671 148.587 434.137 151.385C440.989 142.519 443.956 139 447.161 128.166C437.555 114.801 437.389 108.339 438.786 92.4415Z"/><path fill="#41D9CC" d="M503.754 52.9363C525.405 49.6366 555.008 58.8581 569.511 75.5934C584.654 93.0667 581.158 115.854 563.615 130.1C546.689 143.845 523.314 150.314 501.722 148.339C485.852 147.054 478.842 144.511 464.813 137.851C455.38 142.734 451.743 144.059 441.543 146.633C445.778 139.673 447.656 135.93 450.716 128.611C420.583 85.5515 463.154 57.357 503.754 52.9363Z"/><path fill="#1F2C60" d="M510.651 90.6032C523.82 91.2847 529.636 102.824 516.304 110.788C501.379 111.787 497.194 99.4957 510.651 90.6032Z"/><path fill="#1F2C60" d="M542.113 91.3208C556.499 91.0426 562.885 99.8543 551.218 110.478C537 111.865 531.221 101.898 542.113 91.3208Z"/><path fill="#1F2C60" d="M475.678 91.6564C479.108 90.3421 482.983 91.0043 485.783 93.3836C488.582 95.7629 489.862 99.4803 489.119 103.079C488.377 106.678 485.731 109.585 482.218 110.662C477.037 112.25 471.531 109.445 469.767 104.32C468.004 99.1955 470.618 93.5948 475.678 91.6564Z"/><path fill="#1F2C60" d="M1199.22 301.357C1206.15 306.902 1209.47 308.8 1210.2 318.997C1210.87 328.313 1211.81 345.842 1206.16 353.511C1204.35 355.978 1196.35 362.861 1194.22 364.417C1185.97 370.463 1124.42 414.352 1120.75 414.685L1120.68 413.834L1119 413.27C1120.66 411.207 1131.44 404.269 1134.6 401.849C1156.13 385.312 1184.66 370.458 1203.24 351.05C1209.18 344.84 1207.4 328.006 1207.14 319.707C1206.96 313.83 1203.41 308.409 1198.43 304.729L1200.47 304.294L1199.22 301.357Z"/><path fill="#1F2C60" d="M1071.74 612.482C1074.69 613.898 1082.15 627.221 1084.11 630.701C1099.51 657.995 1090.24 692.104 1089.68 721.366L1087.23 719.895C1088.74 696.347 1093.09 660.409 1084.69 639.3C1082.63 634.115 1072.87 618.464 1069.55 612.884L1071.74 612.482Z"/><path fill="#41D9CC" d="M983.291 515.246C994.271 504.464 1004.55 486.989 1021.93 488.682C1043.84 490.817 1052.11 496.137 1070.75 478.617C1071.66 477.755 1072.56 476.872 1073.43 475.967C1079.71 480.687 1084.67 485.76 1085.31 494.109C1087.22 519.14 1076.22 544.186 1068.98 567.715C1065.05 580.483 1060.41 588.596 1063.45 602.219C1059.89 603.449 1048.53 606.762 1046.73 609.373L1044.68 612.358C1044.46 611.299 1044.39 609.746 1043.64 609.37C1039.86 607.482 1030.27 609.189 1025.95 609.683C1025.62 612.234 1024.23 620.577 1024.63 622.619C1027.21 624.797 1029.65 624.778 1032.99 624.472C1042.29 623.573 1051.37 621.096 1059.85 617.147C1061.85 616.192 1068.23 611.79 1069.55 612.884C1072.87 618.464 1082.63 634.115 1084.69 639.3C1093.09 660.409 1088.74 696.347 1087.23 719.895L1089.68 721.366C1089.23 726.717 1088.3 736.713 1088.55 741.98C1085.35 774.327 1091.54 780.228 1102.2 808.952C1108.85 827.138 1114.95 845.523 1120.48 864.082C1123.42 873.911 1127.15 885.945 1128.91 895.891L1123.8 899.344C1128.88 915.151 1133.74 916.345 1139.54 928.515C1149.09 930.766 1159.73 933.246 1167.56 939.503C1169.9 941.373 1172.24 943.997 1172.44 947.138C1172.59 949.478 1171.47 951.623 1169.95 953.322C1156.69 968.121 1105.4 973.953 1086.47 975.536C1047.67 978.78 946.953 980.43 917.308 954.758C914.902 952.675 912.501 949.779 912.412 946.44C912.334 943.539 913.84 941.013 915.737 938.942C931.111 922.155 975.368 917.36 997.102 916.57C996.63 910.407 992.76 909.195 992.669 904.623C991.945 868.178 986.718 832.922 982.415 796.833C982.131 793.552 981.55 789.942 981.088 786.651C980.046 782.698 977.722 767.511 977.177 763.119C974.029 737.783 964.746 684.104 969.05 661.099C969.194 663.127 970.278 677.25 970.727 678.483C971.31 646.925 975.595 638.783 990.487 611.378C997.555 615.945 1022.14 632.901 1021.73 616.386C1021.68 614.193 1022.64 611.277 1023.23 609.105C1011.64 605.026 1007.92 606.77 996.544 598.573C994.771 587.855 995.112 571.747 995.088 560.514C1001.73 553.837 1007.65 548.776 1012.05 540.386C1004.93 544.115 1001.03 549.164 995.604 554.567C984.207 565.914 971.558 582.498 956.821 589.304C944.409 585.129 925.961 568.559 915.563 559.919L913.043 560.901C908.29 556.699 903.075 553.141 898.311 548.616L900.563 547.777C902.357 546.222 904.122 544.737 905.812 543.066C920.189 549.365 934.361 556.123 948.306 563.33L952.234 557.687C962.808 543.703 973.162 529.554 983.291 515.246ZM1096.58 918.967C1099.01 918.882 1099.85 918.357 1101.2 916.513C1101.76 911.827 1095.19 906.125 1092.99 902.018C1091.69 899.583 1090.39 896.063 1089.39 893.46C1087.42 888.859 1077.86 867.886 1076.79 864.098C1073.91 859.527 1064.83 840.073 1062.2 834.363C1054.01 816.61 1042.89 795.535 1035.98 777.499L1030.25 780.364C1042.73 812.981 1034.17 849.98 1029.89 883.486C1028.7 892.768 1027.38 907.574 1022.75 915.303C1035.62 916.435 1044.53 915.187 1056.85 915.451C1068.73 915.704 1084.5 917.705 1096.58 918.967ZM1101.72 906.7C1103.61 911.425 1104.53 915.459 1108.79 918.185C1116.21 918.189 1119.23 917.822 1126.32 915.646C1125.34 912.561 1122.17 901.585 1120.38 900.053C1114.31 902.211 1107.7 904.412 1101.72 906.7Z"/><path fill="#FE8D43" d="M1022.75 915.303C1035.62 916.435 1044.53 915.187 1056.85 915.451C1068.73 915.704 1084.5 917.705 1096.58 918.967L1097.53 919.39C1095.85 926.443 1070.15 944.398 1070.93 951.988L1072.62 953.997C1089.33 959.792 1127.65 952.839 1144.74 948.852C1144.23 943.601 1143.53 940.8 1142.07 935.743L1139.54 928.515C1149.09 930.766 1159.73 933.246 1167.56 939.503C1169.9 941.373 1172.24 943.997 1172.44 947.138C1172.59 949.478 1171.47 951.623 1169.95 953.322C1156.69 968.121 1105.4 973.953 1086.47 975.536C1047.67 978.78 946.953 980.43 917.308 954.758C914.902 952.675 912.501 949.779 912.412 946.44C912.334 943.539 913.84 941.013 915.737 938.942C931.111 922.155 975.368 917.36 997.102 916.57C995.938 922.535 995.391 922.464 990.217 926.106C989.558 927.576 988.503 929.585 988.378 931.1C991.136 929.296 993.974 927.531 996.761 925.765C1005.86 932.22 1015.51 932.379 1025.04 926.309C1025 926.053 1025.21 925.17 1025.26 924.864L1023.65 924.107C1022.53 921.598 1022.79 918.171 1022.75 915.303Z"/><path fill="#41D9CC" d="M988.378 931.1C991.136 929.296 993.974 927.531 996.761 925.765C1005.86 932.22 1015.51 932.379 1025.04 926.309C1027.65 931.821 1028.93 942.219 1029.91 948.493C1007.81 950.186 973.49 952.65 951.724 950.387C963.51 945.012 978.859 941.265 988.378 931.1Z"/><path fill="#1F2C60" d="M1025.26 924.864C1032.84 928.707 1036.6 960.042 1028.34 960.687C1015.67 961.675 953.411 967.394 949.231 954.505C949.249 949.69 952.827 946.554 957.045 945.255C970.983 940.96 978.902 935.052 990.217 926.106C989.558 927.576 988.503 929.585 988.378 931.1C978.859 941.265 963.51 945.012 951.724 950.387C973.49 952.65 1007.81 950.186 1029.91 948.493C1028.93 942.219 1027.65 931.821 1025.04 926.309C1025 926.053 1025.21 925.17 1025.26 924.864Z"/><path fill="#41D9CC" d="M1010.45 952.277C1014.65 951.952 1029.28 950.257 1030.96 954.359C1030.63 954.978 1030.32 955.594 1029.83 956.104C1024.39 961.735 981.679 959.66 971.596 959.311C966.695 958.89 954.589 958.709 952.654 954.105L953.437 953.21C958.178 952.553 967.928 954.781 973.101 954.474C985.535 953.736 998.011 952.919 1010.45 952.277Z"/><path fill="#1F2C60" d="M1087.23 719.895L1089.68 721.366C1089.23 726.717 1088.3 736.713 1088.55 741.98C1085.35 774.327 1091.54 780.228 1102.2 808.952C1108.85 827.138 1114.95 845.523 1120.48 864.082C1123.42 873.911 1127.15 885.945 1128.91 895.891L1123.8 899.344C1128.88 915.151 1133.74 916.345 1139.54 928.515L1142.07 935.743C1143.53 940.8 1144.23 943.601 1144.74 948.852C1127.65 952.839 1089.33 959.792 1072.62 953.997L1070.93 951.988C1070.15 944.398 1095.85 926.443 1097.53 919.39L1096.58 918.967C1099.01 918.882 1099.85 918.357 1101.2 916.513C1101.76 911.827 1095.19 906.125 1092.99 902.018C1091.69 899.583 1090.39 896.063 1089.39 893.46L1091.56 891.96L1097.08 905.186C1105.04 901.548 1116.55 898.308 1125.6 894.444C1123.89 885.417 1120.2 873.93 1117.52 865.046C1112.33 847.54 1106.59 830.198 1100.34 813.045C1095.96 801.313 1085.86 777.921 1084.77 766.896C1083.71 756.222 1086.3 731.838 1087.23 719.895ZM1101.72 906.7C1103.61 911.425 1104.53 915.459 1108.79 918.185C1116.21 918.189 1119.23 917.822 1126.32 915.646C1125.34 912.561 1122.17 901.585 1120.38 900.053C1114.31 902.211 1107.7 904.412 1101.72 906.7Z"/><path fill="#41D9CC" d="M1128.04 917.964C1128.34 917.906 1129.21 918.083 1129.57 918.135C1133.46 922.291 1137.29 931.613 1139.74 937.016C1121.71 940.18 1108.71 942.969 1090.5 943.893C1087.42 943.886 1083.29 943.495 1080.13 943.285C1087.96 935.506 1095.51 927.452 1102.77 919.138C1113.36 922.464 1117.78 922.087 1128.04 917.964Z"/><path fill="#41D9CC" d="M1141.03 939.68C1141.1 942.079 1141.48 944.392 1140.35 946.377C1134.03 950.619 1080.07 955.805 1073.46 951.495C1074.01 949.307 1074.11 949.199 1075.37 947.283C1079.29 944.419 1090.79 947.292 1097.54 946.592C1112.48 945.042 1126.3 942.389 1141.03 939.68Z"/><path fill="#1F2C60" d="M1027.4 766.803C1028.27 758.658 1031.49 747.129 1033.65 738.966C1038.14 722.511 1042.71 706.08 1047.37 689.675C1049.91 680.495 1056.03 651.906 1060.02 645.748C1059.59 665.684 1044.61 710.085 1038.56 731.368C1036.15 739.812 1032.37 749.98 1032.54 758.802C1032.7 767.409 1066.44 835.21 1072.6 848.662C1075.14 854.21 1079.99 862.202 1080.89 868.067L1080.58 869.033C1079.18 866.5 1078.95 864.864 1076.79 864.098C1073.91 859.527 1064.83 840.073 1062.2 834.363C1054.01 816.61 1042.89 795.535 1035.98 777.499L1030.25 780.364C1042.73 812.981 1034.17 849.98 1029.89 883.486C1028.7 892.768 1027.38 907.574 1022.75 915.303C1022.79 918.171 1022.53 921.598 1023.65 924.107L1025.26 924.864C1025.21 925.17 1025 926.053 1025.04 926.309C1015.51 932.379 1005.86 932.22 996.761 925.765C993.974 927.531 991.136 929.296 988.378 931.1C988.503 929.585 989.558 927.576 990.217 926.106C995.391 922.464 995.938 922.535 997.102 916.57C996.63 910.407 992.76 909.195 992.669 904.623C991.945 868.178 986.718 832.922 982.415 796.833C982.131 793.552 981.55 789.942 981.088 786.651C980.046 782.698 977.722 767.511 977.177 763.119C974.029 737.783 964.746 684.104 969.05 661.099C969.194 663.127 970.278 677.25 970.727 678.483C971.619 706.74 975.622 731.731 979.637 759.597C980.796 767.643 982.588 776.903 983.5 784.808C990.826 826.445 993.575 865.773 995.798 907.773C1005.28 908.909 1013.51 909.49 1023 910.064C1025.09 900.062 1026.52 887.957 1027.95 877.56C1031.1 854.589 1034.56 829.663 1033.39 806.491C1033.05 799.591 1028.88 789.25 1027.66 781.624L1027.54 780.856C1026.99 776.303 1026.63 771.338 1027.4 766.803Z"/><path fill="#FE8D43" d="M1030.17 767.357C1033.09 768.701 1034.79 774.367 1035.98 777.499L1030.25 780.364L1029.36 777.053C1030.09 774.195 1029.24 771.319 1030.17 767.357Z"/><path fill="#FEFEFE" d="M1000.04 911.252C1007.3 912.016 1013.19 912.541 1020.48 912.765C1020.55 918.111 1020.86 921.285 1018.83 926.211C1002.45 930.775 998.841 927.225 1000.04 911.252Z"/><path fill="#1F2C60" d="M1076.79 864.098C1078.95 864.864 1079.18 866.5 1080.58 869.033L1080.89 868.067C1084.19 873.688 1088.9 885.562 1091.56 891.96L1089.39 893.46C1087.42 888.859 1077.86 867.886 1076.79 864.098Z"/><path fill="#1F2C60" d="M898.311 548.616L900.563 547.777C905.487 551.633 910.976 555.728 915.563 559.919L913.043 560.901C908.29 556.699 903.075 553.141 898.311 548.616Z"/><path fill="#FEFEFE" d="M257.116 616.057C259.293 618.128 265.045 624.938 267.018 626.28C278.836 634.315 292.268 642.104 304.54 649.343L374.68 690.674L455.855 738.609C469.95 746.989 484.015 755.48 498.114 763.863C519.782 776.746 543.928 781.271 568.614 773.936C574.128 772.335 579.412 770.03 584.335 767.078C592.766 762.134 607.746 750.674 616.36 744.585L680.449 699.398L841.463 585.463C849.67 579.601 890.879 549.345 896.705 547.704L898.311 548.616C903.075 553.141 908.29 556.699 913.043 560.901C909.36 562.642 896.333 572.067 892.239 574.936L848.781 605.591L667.182 733.711L618.089 768.002C597.927 782.185 579.299 798.045 553.904 799.659C541.048 800.476 523.059 799.491 511.245 793.866C491.958 784.684 473.353 772.682 455.014 761.733L358.531 704.426L297.865 668.707C287.074 662.37 275.283 656.003 265.285 648.569C255.354 641.186 258.268 628.396 257.116 616.057Z"/><path fill="#FEFEFE" d="M1014.5 459.812C1020.38 462.823 1023.22 463.69 1029.68 465.048C1028.43 469.809 1027.61 472.004 1025.69 476.569C1008.37 487.258 998.098 495.483 982.442 508.182C981.169 510.607 980.251 512.38 981.954 514.867L983.291 515.246C973.162 529.554 962.808 543.703 952.234 557.687C952.127 555.117 953.068 555.219 952.037 553.561C950.634 555.084 948.728 557.803 947.424 559.539C942.175 557.317 931.114 553.399 928.277 549.101C927.652 548.562 927.097 548.329 926.359 547.919C921.404 548.478 909.338 541.727 904.595 539.332C914.149 530.7 931.805 518.894 942.56 511.132C966.391 493.936 990.97 477.462 1014.5 459.812Z"/><path fill="#FE8D43" d="M982.442 508.182C981.169 510.607 980.251 512.38 981.954 514.867L983.291 515.246C973.162 529.554 962.808 543.703 952.234 557.687C952.127 555.117 953.068 555.219 952.037 553.561C950.634 555.084 948.728 557.803 947.424 559.539C942.175 557.317 931.114 553.399 928.277 549.101C927.652 548.562 927.097 548.329 926.359 547.919C929.77 544.174 943.961 534.519 948.466 531.458C959.89 523.844 971.216 516.085 982.442 508.182Z"/><path fill="#1F2C60" d="M982.442 508.182C981.169 510.607 980.251 512.38 981.954 514.867L983.291 515.246C973.162 529.554 962.808 543.703 952.234 557.687C952.127 555.117 953.068 555.219 952.037 553.561C952.869 551.804 958.97 543.726 960.596 541.495L980.183 514.53C963.73 522.678 946.093 539.64 928.277 549.101C927.652 548.562 927.097 548.329 926.359 547.919C929.77 544.174 943.961 534.519 948.466 531.458C959.89 523.844 971.216 516.085 982.442 508.182Z"/><path fill="#FEFEFE" d="M1198.43 304.729C1203.41 308.409 1206.96 313.83 1207.14 319.707C1207.4 328.006 1209.18 344.84 1203.24 351.05C1184.66 370.458 1156.13 385.312 1134.6 401.849C1131.44 404.269 1120.66 411.207 1119 413.27L1117.27 412.962C1112.41 407.689 1108.92 404.601 1102.93 400.78C1123.35 384.601 1191 345.502 1198.63 325.437C1201.6 317.625 1197 310.111 1198.21 305.471C1198.28 305.222 1198.36 304.977 1198.43 304.729Z"/><path fill="#41D9CC" d="M309.52 508.796C313.99 507.69 319.655 511.232 323.843 511.155C329.125 511.058 333.297 504.372 338.363 509.531C344.507 515.789 348.641 512.565 353.348 514.845L353.485 515.728C349.943 519.464 336.88 528.073 332.075 530.632C322.349 530.135 315.96 530.083 306.922 525.884C307.655 520.862 308.415 515.844 309.202 510.83L309.52 508.796Z"/><path fill="#B3F5CE" d="M1046.73 609.373C1048.75 613.578 1049.84 614.557 1048.15 619.078L1047.08 619.554C1044.98 617.775 1045.1 615.371 1044.68 612.358L1046.73 609.373Z"/><path fill="#FEFEFE" d="M880.471 537.878C856.647 555.618 830.24 573.56 805.837 590.87L660.159 693.684C642.058 706.371 624.034 719.166 606.086 732.068C583.606 748.265 565.739 765.416 535.708 761.44C528.829 760.578 522.149 758.544 515.957 755.426C502.832 748.772 489 740.108 476.201 732.504L415.058 696.303L327.535 644.449C315.065 637.03 301.631 629.399 289.353 621.937C269.447 610.621 267.256 595.762 286.777 582.021C306.084 568.43 326.213 555.233 345.688 541.627L497.479 435.702L881.821 163.404C917.934 138.328 948.526 163.826 979.218 182.392L1040.67 219.381C1071.58 237.85 1102.35 256.565 1132.96 275.525C1146.29 283.678 1168.05 294.773 1179.71 305.663C1184.51 310.14 1183.04 322.974 1177.12 327.846C1167.62 335.664 1155.61 343.026 1145.45 350.23C1120.79 367.655 1096.4 384.844 1070.79 400.868C1059.12 393.237 1046.15 390.799 1033.48 397.614C1026.37 401.436 1027.5 407.371 1031.37 412.978L1034.69 413.308C1038.48 415.236 1040.8 417.559 1043.82 420.478C1042.45 424.452 1041.16 428.871 1039.89 432.912C1042.58 441.762 1043.57 442.807 1051.19 448.195L1050.49 448.85C1046.56 452.576 1038.97 460.662 1044.42 465.62C1046.99 466.511 1049.31 465.702 1052.08 465.152C1052.28 468.2 1052.71 471.235 1053.09 474.266C1044.23 475.23 1038.78 475.541 1029.94 475.466C1034.74 456.881 1026.46 464.32 1015.96 456.407C1012.5 453.805 1012.67 446.401 1012.62 442.065C995.661 452.902 974.256 468.993 957.688 480.942C935.724 496.634 913.623 512.133 891.388 527.438L888.701 526.319C884.31 524.471 881.169 524.034 877.142 527.193C874.486 532.272 876.991 534.223 880.471 537.878Z"/><path fill="#1F2C60" d="M1031.37 412.978L1034.69 413.308C1028.54 420.452 1024.59 423.175 1017.16 429.017C1017.16 432.529 1017.79 436.143 1014.31 437.879C1007.81 430.876 1027.18 417.572 1030.91 413.483L1031.37 412.978Z"/><path fill="#1F2C60" d="M477.709 479.912C483.146 481.614 499.776 491.931 505.193 495.18L560.373 528.686C610.785 559.253 661.417 589.456 712.266 619.291L613.239 688.771C597.153 700.087 579.568 713.183 563.283 723.805C544.933 711.252 520.504 698.073 500.852 686.367L380.911 614.751C370.95 608.813 332.907 587.469 327.263 581.972C340.109 571.669 365.418 555.71 379.77 546.041L477.709 479.912Z"/><path fill="#41D9CC" d="M478.054 483.182C481.827 484.541 494.517 492.169 498.516 494.524L541.306 520.158L706.502 619.508C660.846 652.918 613.62 684.218 567.651 717.212C566.062 718.353 564.227 719.199 562.267 719.32L331.637 582.269C350.899 568.371 370.188 555.879 389.857 542.663L478.054 483.182Z"/><path fill="#1F2C60" d="M458.554 538.937C471.752 537.554 488.921 540.793 499.694 548.828C511.866 557.906 515.209 573.556 505.226 585.652C495.909 596.94 481.408 601.409 467.382 603.052C454.244 604.867 436.714 601.198 426.147 592.914C413.702 583.158 412.104 566.877 422.398 554.86C431.753 543.937 444.753 540.218 458.554 538.937Z"/><path fill="#FEFEFE" d="M456.18 541.477C469.591 540.736 481.406 541.464 493.481 548.218C505.148 554.743 513.23 568.366 505.334 581.133C498.269 592.558 484.888 596.89 472.476 599.911C455.75 603.063 422.157 596.728 418.904 576.748C415.171 553.818 438.966 544.916 456.18 541.477Z"/><path fill="#1F2C60" d="M459.39 546.893C469.221 545.865 480.033 547.547 488.564 552.616C503.668 561.589 503.58 578.621 488.381 587.558C481.228 591.765 476.031 592.927 468.063 594.638C447.56 594.95 433.39 593.173 425.532 572.175C431.644 553.724 440.541 549.619 459.39 546.893Z"/><path fill="#41D9CC" d="M457.602 549.498C475.505 548.863 492.637 550.357 497.525 570.709C493.909 586.279 482.87 588.996 468.713 591.88C458.79 593.238 449.788 592.71 440.851 587.797C431.606 582.714 425.848 571.637 432.488 561.963C438.176 553.675 448.335 551.267 457.602 549.498Z"/><path fill="#1F2C60" d="M458.277 558.179C481.754 557.333 491.435 576.288 466.073 583.405C438.38 583.818 432.145 563.355 458.277 558.179Z"/><path fill="#FEFEFE" d="M457.428 560.113C475.84 558.805 488.687 572.527 466.17 580.933C449.453 584.443 433.943 569.99 457.428 560.113Z"/><path fill="#1F2C60" d="M541.134 578.711C571.209 596.169 606.028 616.213 634.933 634.81C629.682 638.96 623.295 642.867 617.602 646.531C616.016 646.338 530.22 594.244 523.944 590.472C530.242 586.458 535.166 583.176 541.134 578.711Z"/><path fill="#1F2C60" d="M488.302 613.145C520.222 631.752 551.987 650.624 583.594 669.76L577.83 674.122C568.37 669.298 554.405 660.426 545.008 654.807L482.52 617.197L488.302 613.145Z"/><path fill="#1F2C60" d="M497.904 606.643C528.377 624.13 562.023 645.096 592.048 663.564L586.929 667.817C575.779 660.04 559.608 650.843 547.827 644.03C529.074 633.335 510.435 622.442 491.913 611.351L497.904 606.643Z"/><path fill="#1F2C60" d="M506.503 600.651C538.453 618.713 569.181 639.119 600.725 657.266C599.359 658.654 597.278 660.369 595.769 661.696C583.118 654.448 570.519 646.205 558.003 638.6C538.986 627.084 519.844 615.778 500.579 604.682L506.503 600.651Z"/><path fill="#1F2C60" d="M842.868 225.172C844.85 225.286 846.092 225.667 847.838 226.675C887.914 249.808 927.598 273.672 967.51 297.084C1004.75 318.929 1041.66 341.287 1079.48 362.115C1038.57 392.783 994.307 423.192 952.757 453.493C946.8 453.352 737.863 326.659 716.399 313.829C735.674 301.405 754.786 287.296 773.513 273.915C796.481 257.454 819.601 241.206 842.868 225.172Z"/><path fill="#41D9CC" d="M845.06 228.419C852.618 231.708 866.811 240.662 874.37 245.187L922.885 274.048L1006.02 322.983C1023.71 333.274 1042.66 343.61 1059.85 354.496C1055.65 355.181 1049.6 355.443 1045.24 355.759L986.438 360.102C972.383 361.13 957.225 362.593 943.246 362.846C941.963 343.729 938.952 322.803 938.361 303.948C917.931 306.964 897.226 307.222 876.67 308.883C868.658 309.53 860.655 310.282 852.63 310.76C850.872 283.792 847.407 255.413 845.06 228.419Z"/><path fill="#41D9CC" d="M845.726 314.288C847.893 313.91 848.776 313.73 850.227 314.717C851.605 333.598 852.696 354.114 855.394 372.793C864.677 371.223 876.911 370.791 886.525 370.038C904.671 368.534 922.827 367.148 940.991 365.882C943.972 393.608 945.248 421.769 948.792 449.369C927.952 437.363 906.64 424.209 885.937 411.823L785.926 352.086C775.322 345.813 744.709 328.887 736.761 322.358C773.885 318.549 808.604 316.802 845.726 314.288Z"/><path fill="#FE8D43" d="M1055.03 357.62C1057.7 357.335 1062.66 357.346 1065.51 357.264C1068.36 358.772 1071.11 360.649 1073.83 362.41C1057.62 375.714 1040.38 387.595 1023.3 399.736L958.099 446.127L951.251 451.131C948.597 422.644 946.557 393.937 943.672 365.489C956.699 365.277 972.014 363.77 985.239 362.795L1055.03 357.62Z"/><path fill="#FE8D43" d="M841.298 229.91L842.289 230.374C843.947 240.197 844.926 253.198 845.832 263.215L850.058 310.94C847.831 311.265 845.784 311.439 843.55 311.611C806.385 314.472 769.114 316.708 731.976 319.834C728.515 317.954 724.958 315.681 721.58 313.606C735.372 305.342 751.512 293.035 764.863 283.544C790.188 265.449 815.668 247.57 841.298 229.91Z"/><path fill="#41D9CC" d="M927.283 307.607L935.73 307.214C936.773 325.773 940.135 345.257 940.642 363.332C916.484 364.331 890.692 367.393 866.169 368.771C863.853 369.173 860.193 369.283 857.749 369.433C855.458 353.809 854.558 330.099 852.845 313.355C874.405 310.426 904.335 309.862 927.283 307.607Z"/><path fill="#1F2C60" d="M892.293 320.154C900.223 319.849 908.351 320.081 915.077 324.908C921.175 329.285 923.919 337.745 918.738 343.975C914.217 349.412 907.958 350.883 901.274 351.814C886.126 353.229 877.467 350.269 872.095 335.625C876.539 325.212 881.411 322.41 892.293 320.154Z"/><path fill="#FEFEFE" d="M893.229 322.784C920.448 321.148 929.061 344.04 900.861 349.091C876.697 351.944 863.923 329.65 893.229 322.784Z"/><path fill="#1F2C60" d="M700.16 325.171C704.459 326.594 721.299 336.973 725.911 339.726L776.262 369.784L878.175 430.663C895.52 440.988 916.493 452.182 932.687 463.418C916.004 476.966 897.893 488.544 880.465 501.003C859.231 516.183 838.339 531.304 816.825 546.107C814.442 546.277 748.204 505.204 740.713 500.674L584.482 406.591C622.786 380.534 662.251 352.053 700.16 325.171Z"/><path fill="#41D9CC" d="M700.858 328.561C717.24 337.507 733.832 348.03 750.081 357.473C809.677 392.106 867.938 429.526 928.077 463.173C917.828 471.843 901.05 482.982 889.631 491.108C865.503 508.395 841.224 525.47 816.796 542.331C813.78 542.525 692.033 467.658 675.63 457.764C653.866 444.638 612.79 420.699 589.976 406.547C599.634 398.451 616.068 388.263 626.759 380.501C651.158 362.784 675.894 345.474 700.858 328.561Z"/><path fill="#1F2C60" d="M687.751 357.909C699.897 366.992 727.692 382.256 741.817 390.64C779.604 413.186 817.552 435.46 855.659 457.459L849.366 461.427L848.851 461.614C841.389 460.639 699.357 373.326 682.083 362.632L687.751 357.909Z"/><path fill="#1F2C60" d="M697.184 351.451C709.283 358.002 723.709 367.164 735.874 374.32C761.752 389.218 787.332 404.629 812.597 420.544L807.126 425.071L691.651 356.355L697.184 351.451Z"/><path fill="#1F2C60" d="M656.163 379.14C688.558 397.498 721.113 418.2 753.276 437.249L746.886 442.334C738.155 437.653 726.591 430.1 717.886 424.709C695.192 410.652 673.39 396.756 650.151 383.573L656.163 379.14Z"/><path fill="#1F2C60" d="M677.592 365.173C679.649 365.353 757.698 412.992 765.355 417.6L759.207 422.005C749.28 415.469 736.766 408.36 726.379 402.087C708.453 391.115 690.401 380.351 672.228 369.795L677.592 365.173Z"/><path fill="#1F2C60" d="M635.282 392.547C642.665 395.618 658.608 405.603 665.928 410.086L715.637 440.783L710.247 444.672C703.546 442.134 688.9 433.031 682.203 428.99C664.707 418.405 647.32 407.642 630.044 396.702L635.282 392.547Z"/><path fill="#1F2C60" d="M646.042 385.953C654.475 389.873 665.093 396.961 673.176 401.798C690.746 412.312 708.181 423.789 725.953 433.893L721.473 438.391C697.302 426.083 664.18 404.479 640.207 389.743L646.042 385.953Z"/><path fill="#1F2C60" d="M572.603 415.398C579.907 418.567 592.349 426.665 599.434 430.997C614.216 440.068 629.052 449.049 643.943 457.939C698.109 489.522 751.959 521.644 805.485 554.299C791.949 565.126 776.721 574.337 762.564 584.316C748.769 594.041 735.859 603.853 721.737 613.167C715.982 610.646 704.126 603.474 698.521 600.117L661.476 577.732L555.895 514.242C534.403 501.263 509.599 485.279 487.545 474.031C516.017 454.635 543.768 434.244 572.603 415.398Z"/><path fill="#41D9CC" d="M572.302 419.21C578.732 420.975 621.714 447.953 629.238 452.463L727.683 510.779C751.764 525.199 775.774 540.496 800.21 554.233C776.623 572.437 746.929 592.103 722.245 609.411C714.805 607.84 658.937 572.944 648.274 566.534L493.835 473.595C505.759 464.493 517.219 456.698 529.483 448.114C543.932 438 557.159 428.324 572.302 419.21Z"/><path fill="#1F2C60" d="M571.365 445.174C572.936 445.887 584.947 453.753 587.482 455.33L624.55 478.053L700.18 524.646C715.718 534.16 730.819 542.768 746.088 552.872L740.818 557.13C739.161 557.147 581.243 459.533 566.106 449.8L571.365 445.174Z"/><path fill="#1F2C60" d="M562.101 452.741C563.824 453.34 573.852 459.351 575.686 460.454C587.072 467.397 598.42 474.402 609.73 481.47L730.862 556.796L724.635 561.491C668.748 525.76 612.361 490.818 555.491 456.673C557.559 455.363 559.971 454.001 562.101 452.741Z"/><path fill="#1F2C60" d="M552.481 458.586C563.549 466.772 580.648 476.362 592.722 483.79L665.855 528.944L660.29 533.008C623.479 509.694 583.495 486.051 546.07 463.636L552.481 458.586Z"/><path fill="#1F2C60" d="M542.589 465.989L654.279 533.917L648.854 537.897C644.656 537.411 547.234 476.481 536.942 470.16L542.589 465.989Z"/><path fill="#1F2C60" d="M916.502 161.264C929.953 170.876 947.434 180.835 961.891 189.029C956.574 193.434 952.525 196.346 946.797 200.132C931.482 193.171 917.391 180.687 900.93 172.954C906.182 169.14 911.373 165.242 916.502 161.264Z"/><path fill="#FEFEFE" d="M915.739 165.132C918.962 165.42 951.164 185.825 957.349 189.214C955.251 190.959 950.637 195.059 947.946 194.989C947.31 193.375 947.423 193.417 946.111 192.314C944.949 192.866 943.792 193.427 942.64 193.998C938.354 193.702 910.435 174.987 906.217 171.94C910.181 169.535 912.109 168.066 915.739 165.132Z"/><path fill="#1F2C60" d="M913.067 168.752C922.876 170.881 938.232 186.222 949.022 189.037C950.43 189.405 950.498 190.778 950.857 192.017C946.213 190.944 914.217 172.344 913.067 168.752Z"/><path fill="#1F2C60" d="M1139.7 301.289C1140.87 301.585 1142.03 301.912 1143.19 302.272C1149.05 304.116 1165.95 311.756 1162.79 320.262C1161.62 323.408 1156.9 324.704 1153.96 325.795C1147.82 324.716 1126.35 316.898 1130.18 307.057C1131.38 303.982 1136.71 302.389 1139.7 301.289Z"/><path fill="#1F2C60" d="M1023.25 228.795C1029.34 228.518 1038.62 229.495 1041.33 235.925C1042.02 237.515 1042.03 239.317 1041.35 240.913C1039.58 245.225 1034.42 247.191 1030.41 248.728C1014.51 251.108 1001.77 238.114 1023.25 228.795Z"/><path fill="#FEFEFE" d="M1023.13 231.425C1028.22 231.283 1035.92 231.023 1038.45 237.179C1040.45 242.05 1034.02 244.767 1030.35 246.205C1017.95 247.08 1007.15 239.095 1023.13 231.425Z"/><path fill="#1F2C60" d="M1088.46 288.87C1098.66 288.318 1109.33 289 1119.59 289.063C1122.87 289.083 1129.15 288.728 1130.6 292.164C1128.96 294.469 1125.46 296.332 1122.92 297.93L1111.37 306.065C1106.6 303.092 1089.54 294.125 1088.46 288.87Z"/><path fill="#FEFEFE" d="M1095.56 292.108C1105.71 291.672 1116.17 291.938 1126.35 292.056L1120.73 295.778C1117.64 297.741 1114.48 300.069 1111.48 302.201C1105.56 298.966 1101.15 295.922 1095.56 292.108Z"/><path fill="#1F2C60" d="M380.56 643.933C385.005 645.26 400.941 654.964 405.849 657.899L448.947 683.719C457.487 688.806 467.078 694.36 475.596 699.623C477.105 700.556 476.802 701.105 476.95 702.643C474.295 701.856 470.076 699.432 467.575 697.993C439.182 681.656 411.142 664.667 383.042 647.833C380.769 646.471 380.979 646.201 380.56 643.933Z"/><path fill="#1F2C60" d="M1032.57 420.485C1039.55 420.698 1038.58 426.737 1038.2 431.878C1034.42 429.674 1033.29 424.501 1032.57 420.485Z"/><path fill="#1F2C60" d="M1035.48 439.034C1039.67 439.945 1041.29 443.755 1042.68 447.347C1037.62 445.823 1036.78 443.652 1035.48 439.034Z"/><path fill="#FE8D43" d="M369.683 393.008C371.098 402.317 382.443 488.97 383.073 490.062L385.853 491.443C385.482 496.193 361.842 510.401 356.595 512.752C351.861 511.252 338.522 507.435 336.091 504.012C336.467 499.679 340.274 493.246 341.43 488.401C348.707 457.894 356.226 427.615 364.88 397.457C367.183 395.897 367.841 395.026 369.683 393.008Z"/><path fill="#41D9CC" d="M1088.36 497.699C1095.12 503.48 1106.41 544.438 1108.35 554.359C1100.99 572.061 1090.68 584.42 1077.67 598.251L1069.14 607.234C1060.71 587.68 1068.31 579.908 1074.81 560.963C1082.47 538.687 1086.72 521.005 1088.36 497.699Z"/><path fill="#FEFEFE" d="M364.88 397.457C367.121 385.156 395.436 291.985 401.482 291.05C402.31 296.448 373.18 377.541 369.683 393.008C367.841 395.026 367.183 395.897 364.88 397.457Z"/><path fill="#FEFEFE" d="M881.441 526.948C887.317 528.002 899.563 536.142 902.861 541.112C902.379 543.023 901.23 543.517 899.539 545.042C899.14 545.405 898.823 545.404 898.227 545.59C895.665 544.188 893.116 542.764 890.58 541.318C885.376 538.336 877.103 533.637 881.441 526.948Z"/><path fill="#FEFEFE" d="M313.897 504.959C311.872 502.887 311.357 500.98 313.197 498.748C317.488 497.231 319.608 497.845 323.993 498.6C326.838 498.51 329.804 498.012 332.081 499.407C335.457 505.225 325.792 507.122 321.981 507.965C319.542 507.066 316.212 505.953 313.897 504.959Z"/><path fill="#FFFFF1" d="M313.897 504.959C311.872 502.887 311.357 500.98 313.197 498.748C317.488 497.231 319.608 497.845 323.993 498.6C318.859 498.562 316.405 500.381 313.897 504.959Z"/><path fill="#FEFEFE" d="M1056.29 449.08C1059.3 450.913 1059.83 451.407 1060.37 454.699C1059.11 458.708 1056.55 459.786 1053.02 461.896L1050 461.319C1048.45 459.91 1048.91 460.776 1048.73 458.567C1049.97 455.417 1053.87 451.693 1056.29 449.08Z"/><path fill="#B3F5CE" d="M996.017 602.485C996.269 602.804 996.811 603.924 997.025 604.335C997.071 607.322 996.335 608.626 995.271 611.403C994.103 610.215 994.208 610.236 993.64 608.643C993.75 605.77 994.533 604.948 996.017 602.485Z"/></svg>