<?xml version="1.0" encoding="utf-8" ?><svg xmlns="http://www.w3.org/2000/svg" xmlns:xlink="http://www.w3.org/1999/xlink" width="1365" height="1024" viewBox="0 0 1365 1024"><path fill="#1E2A5E" d="M0 0L1365 0L1365 4.66402L1365 114.803L1365 721.793L1365 1010.36L1365 1024L200.279 1024L12.5991 1024L0 1024L0 455.532L0 0.689108L0 0Z"/><path fill="#FF8A6B" d="M0 0.689108C9.5343 0.811177 19.0696 0.834709 28.6044 0.7597C31.3 0.740299 40.9255 0.468847 43.1648 0.786631L201.635 0.835765L420.721 199.994L488.619 261.614C500.267 272.186 517.086 286.874 528.103 297.971C518.642 308.704 506.376 326.454 497.27 338.353L419.765 440.426L267.355 638.58L226.174 692.079C222.571 696.78 202.818 721.857 201.468 726.789C197.102 742.739 200.033 779.308 199.396 797.052C199.115 804.863 206.812 818.076 212.655 822.213C228.505 833.436 256.115 840.961 274.811 848.652C309.051 862.739 344.946 874.986 378.902 889.091C348.055 901.645 310.244 914.037 278.303 925.582C218.905 946.907 159.689 968.737 100.663 991.071L41.5951 1013.13C34.1026 1015.91 18.9756 1020.92 12.5991 1024L0 1024L0 455.532L0 0.689108Z"/><path fill="#40E0D0" d="M0 0.689108C9.5343 0.811177 19.0696 0.834709 28.6044 0.7597C31.3 0.740299 40.9255 0.468847 43.1648 0.786631C62.0573 33.6854 93.7143 76.266 115.694 108.366L286.738 353.337L84.9775 425.829C58.0561 435.385 26.0709 445.398 0 455.532L0 0.689108Z"/><path fill="#FF8A6B" d="M1151.44 801.199L1365 721.793L1365 1010.36L1365 1024L200.279 1024C204.412 1023.32 219.054 1023.56 223.999 1023.56L270.161 1023.6L455.735 1023.55L510.974 1023.6C516.314 1023.61 536.181 1023.94 540.447 1023.08C548.633 1021.43 565.788 1014.11 574.822 1010.79C616.637 995.452 658.247 979.74 700.07 964.404L1151.44 801.199Z"/><path fill="#40E0D0" d="M1151.44 801.199L1365 721.793L1365 1010.36C1359.68 1004.73 1351.72 997.641 1345.94 992.143C1334.2 981.013 1322.55 969.793 1310.98 958.483L1205.4 854.664C1187.4 836.87 1169.02 819.377 1151.44 801.199Z"/><path fill="#FF8A6B" d="M519.395 1.07985C591.284 0.768303 1359.68 -0.394882 1363.81 1.6831C1364.62 2.09183 1364.77 3.80785 1365 4.66402L1365 114.803C1358.31 117.969 1345.71 122.003 1338.34 124.591L1289.66 141.579L1148.64 190.996L906.536 97.782L826.807 67.2309C813.009 61.8644 786.948 51.0342 773.517 47.2484C762.612 44.0674 751.152 43.2609 739.909 44.8834C729.729 46.425 719.73 49.9421 711.49 56.2381C699.337 65.5244 668.889 109.668 657.736 124.741C627.001 96.2693 594.86 68.6442 563.717 40.582C549.206 27.5069 533.448 14.4423 519.395 1.07985Z"/><path fill="#FF8A6B" d="M744.282 52.8943C751.915 51.9311 762.361 52.8871 769.521 55.4045C790.97 62.9463 812.785 71.4983 834.002 79.6437L958.598 127.853L1078.37 173.658C1104.47 183.516 1130.52 193.538 1156.41 203.96C1167.68 207.594 1187.45 224.195 1178.41 237.824C1168.79 252.325 1154.94 268.828 1144.07 282.775L1066.56 383.24C975.917 502.092 884.438 620.307 792.133 737.876C763.43 774.768 734.485 811.471 705.299 847.982C692.571 864.023 680.085 880.268 667.269 896.231C661.115 903.896 652.056 908.226 642.951 911.242C639.825 912.178 636.643 912.915 633.424 913.449C623.382 915.168 613.516 914.503 603.981 911.039C586.849 904.814 569.624 897.585 552.671 890.864L456.366 853.251L292.684 790.772L257.905 777.644C239.271 770.768 213.975 765.719 209.792 742.685C207.096 727.842 223.428 711.4 232.158 700.009L262.717 660.196L361.856 531.625C467.814 393.756 572.649 255.026 676.353 115.452C685.005 103.826 708.797 69.0103 719.21 61.7249C726.759 56.4434 735.286 54.2117 744.282 52.8943Z"/><path fill="#1E2A5E" d="M747.257 69.4921C753.936 69.0906 759.523 69.1199 765.868 71.538C795.238 82.7321 824.662 94.2715 853.933 105.701L999.062 161.917L1097.68 199.677C1113.37 205.776 1129.1 211.869 1144.58 218.498C1151.02 221.258 1158.34 229.789 1154.28 236.878C1148.89 246.29 1140.67 255.573 1133.98 264.312L1065.38 353.032C970.272 478.251 874.217 602.747 777.222 726.508L698.009 827.809C683.522 846.507 669.59 865.731 654.546 884.043C649.398 890.309 645.896 892.38 638.56 895.53C637.89 895.767 637.211 895.981 636.527 896.173C618.009 901.489 605.172 893.5 588.394 886.796L546.17 870.095L402.938 814.611L294.769 773.23L262.348 761.317C251.692 757.444 234.478 753.53 231.49 740.834C230.587 736.995 231.307 732.311 233.707 729.084C243.66 715.704 253.786 702.45 264.022 689.28L311.758 627.291L483.476 404.457L650.091 183.639L703.51 112.943C712.031 101.605 720.185 89.6663 728.994 78.6009C733.359 73.1179 740.616 70.884 747.257 69.4921Z"/><path fill="#40E0D0" d="M713.019 116.33C745.659 130.253 781.218 143.005 814.46 156.015L1025.71 238.452C1054.15 249.53 1087.28 261.334 1115.07 273.264C1081.7 318.743 1043.98 365.699 1009.47 410.618C942.545 498.684 874.972 586.255 806.755 673.324C771.617 718.911 736.203 764.284 700.513 809.44C688.14 825.671 675.685 841.84 663.148 857.945C657.752 864.902 646.18 881.514 639.325 885.44C636.796 886.64 634.165 887.613 631.463 888.345C618.76 891.8 602.299 882.666 590.401 877.865C575.02 871.615 559.595 865.475 544.126 859.446L362.554 789.388L284.57 759.723C227.222 738.413 232.46 746.012 269.514 697.883L323.155 628.25C406.08 521.369 488.321 413.958 569.872 306.024L663.238 182.104L693.72 141.422C699.709 133.417 706.558 123.665 713.019 116.33Z"/><defs><linearGradient id="gradient_0" gradientUnits="userSpaceOnUse" x1="539.85211" y1="598.87427" x2="708.12451" y2="566.37836"><stop offset="0" stop-color="#062A69"/><stop offset="1" stop-color="#254773"/></linearGradient></defs><path fill="url(#gradient_0)" d="M582.698 463.026L584.1 462.832C586.085 464.632 585.849 463.908 586.466 466.149L585.201 466.14C573.077 502.705 644.381 540.569 671.163 494.617C673.267 496.525 678.898 502.104 681.221 502.741L681.722 502.704C681.943 501.074 672.239 495.071 671.621 492.397C676.027 493.227 675.624 496.288 680.44 497.714C688.125 504.888 692.815 512.419 693.234 523.211C693.306 525.698 693.365 528.184 693.411 530.671C698.849 533.24 701.575 535.674 705.131 540.618C704.978 558.827 704.952 577.037 705.051 595.246C705.07 606.861 707.617 629.166 698.038 636.595C694.556 639.295 678.294 652.34 674.948 653.463C668.499 652.506 672.293 640.083 670.716 635.245C667.671 625.902 664.604 624.929 668.432 614.781C661.465 619.091 658.573 620.623 650.506 623.068L649.873 674.872C654.973 677.152 662.234 680.17 667.078 682.684C661.165 689.018 638.731 704.24 630.202 710.945C624.389 709.102 600.418 699.996 596.971 696.148C597.497 691.597 612.979 682.327 617.182 679.514C616.118 659.013 615.489 638.493 615.296 617.965C608.924 615.356 602.365 612.76 596.115 609.911C596.202 615.601 596.944 643.739 595.97 648.037C600.724 650.132 605.431 652.334 610.087 654.642C606.285 658.717 577.67 679.611 572.479 682.261C562.821 678.155 553.292 674.361 543.497 670.582C541.459 669.795 540.895 668.916 540.259 667.174C541.681 662.939 559.518 652.162 564.515 648.827C564.634 631.397 564.593 613.965 564.391 596.535L558.686 592.644C555.359 595.66 545.936 603.981 541.688 602.644C538.968 599.091 539.981 589.78 540.111 584.987C529.721 570.441 534.646 567.053 535.189 550.758C536.05 533.096 533.916 514.544 536.352 497.046C537.449 489.168 548.465 485.538 555.159 485.104C564.499 474.829 570.117 469.1 582.698 463.026Z"/><path fill="#40E0D0" d="M608.676 525.37C613.506 527.282 635.494 536.305 639.315 536.788L641.163 536.516L642.018 537.331C641.355 543.227 641.741 551.141 641.682 557.249C641.55 570.748 642.032 584.425 641.47 597.919C621.512 589.703 601.404 581.205 581.107 573.922C578.116 572.849 567.393 568.624 565.197 568.156C567.464 565.695 567.076 563.299 567.301 559.796C567.681 556.155 567.456 546.142 567.473 542.068L568.301 543.37C570.828 543.378 584.256 533.603 586.341 531.171C590.089 526.726 593.872 528.934 598.567 530.699C601.889 528.833 605.26 527.056 608.676 525.37Z"/><path fill="#1E2A5E" d="M639.315 536.788L641.163 536.516L642.018 537.331C641.355 543.227 641.741 551.141 641.682 557.249C641.55 570.748 642.032 584.425 641.47 597.919C621.512 589.703 601.404 581.205 581.107 573.922C578.116 572.849 567.393 568.624 565.197 568.156C567.464 565.695 567.076 563.299 567.301 559.796C567.416 562.189 567.438 562.667 568.037 564.962C570.325 566.449 585.603 572.042 588.903 573.36C605.232 579.884 621.924 585.992 638.06 592.979C637.917 576.812 638.592 560.439 638.129 544.299C636.049 548.096 631.111 555.331 626.139 554.337C625.005 551.989 625.288 552.94 625.443 550.205C621.377 544.036 624.263 541.554 629.943 538.523C633.053 538.92 634.021 540.192 636.77 541.575L637.938 541.129C638.783 539.196 638.894 538.859 639.315 536.788Z"/><path fill="#1E2A5E" d="M625.443 550.205C621.377 544.036 624.263 541.554 629.943 538.523L631.525 540.485L631 541.084L630.242 541.134C628.411 543.061 627.915 543.415 627.41 545.983C627.762 548.285 627.931 548.528 629.384 550.361L630.688 550.869L630.201 551.406C627.777 551.294 627.684 551.232 625.443 550.205Z"/><path fill="#37C0C7" d="M630.242 541.134C632.407 542.171 632.528 542.179 633.616 544.215C633.305 547.738 632.295 548.328 629.384 550.361C627.931 548.528 627.762 548.285 627.41 545.983C627.915 543.415 628.411 543.061 630.242 541.134Z"/><path fill="#1E2A5E" d="M586.341 531.171C590.089 526.726 593.872 528.934 598.567 530.699C608.879 542.851 595.272 550.672 587.798 537.498L587.462 535.064L586.341 531.171Z"/><path fill="#37C0C7" d="M587.462 535.064C589.254 532.322 588.46 532.636 590.99 531.637C593.442 531.971 592.679 531.522 594.296 533.066C592.881 535.27 590.271 535.07 587.798 537.498L587.462 535.064Z"/><path fill="#1E2A5E" d="M607.275 556.998C614.029 557.85 623.493 565.627 616.371 572.207C606.537 571.486 602.102 565.932 607.275 556.998Z"/><path fill="#40E0D0" d="M608.225 560.299C613.083 561.661 615.221 564 615.244 569.053C609.843 568.036 608.005 565.673 608.225 560.299Z"/><path fill="#1E2A5E" d="M569.957 543.345C572.985 543.519 575.961 544.203 578.76 545.369C584.33 547.698 586.319 551.396 583.559 556.913C576.126 557.448 566.716 550.547 569.957 543.345Z"/><path fill="#40E0D0" d="M572.758 547.458C577.65 548.216 580.637 548.265 581.961 553.599C577.663 553.271 574.123 551.934 572.758 547.458Z"/><path fill="#ECCFB2" d="M585.201 466.14C573.077 502.705 644.381 540.569 671.163 494.617C673.267 496.525 678.898 502.104 681.221 502.741C682.143 504.915 682.451 504.551 681.781 506.41C678.396 515.799 648.954 529.987 646.485 533.926C648.056 535.535 647.606 534.762 647.837 537.378C647.102 538.778 647.563 538.583 646.548 538.994L642.018 537.331L641.163 536.516L639.315 536.788C635.494 536.305 613.506 527.282 608.676 525.37C605.26 527.056 601.889 528.833 598.567 530.699C593.872 528.934 590.089 526.726 586.341 531.171C584.256 533.603 570.828 543.378 568.301 543.37L567.473 542.068C567.456 546.142 567.681 556.155 567.301 559.796C567.076 563.299 567.464 565.695 565.197 568.156C564.222 565.075 564.417 558.657 564.4 555.169L564.399 524.267C564.412 518.907 564.584 512.705 564.018 507.352C563.822 505.493 561.72 504.692 559.956 503.569C562.105 502.716 563.725 502.857 566.038 502.798C564.536 502.209 561.152 501.088 560.692 499.623C556.162 485.179 575.755 470.953 585.201 466.14Z"/><path fill="#F5EAC3" d="M567.093 507.37C580.994 513.278 594.855 519.278 608.676 525.37C605.26 527.056 601.889 528.833 598.567 530.699C593.872 528.934 590.089 526.726 586.341 531.171C584.256 533.603 570.828 543.378 568.301 543.37L567.473 542.068C567.004 531.114 567.171 518.46 567.093 507.37Z"/><path fill="#1E2A5E" d="M566.038 502.798C585.671 511.669 605.32 520.729 625.452 528.404C630.385 530.285 639.904 534.284 644.688 535.204C646.155 534.618 645.631 535.124 646.485 533.926C648.056 535.535 647.606 534.762 647.837 537.378C647.102 538.778 647.563 538.583 646.548 538.994L642.018 537.331L641.163 536.516L639.315 536.788C635.494 536.305 613.506 527.282 608.676 525.37C594.855 519.278 580.994 513.278 567.093 507.37C567.171 518.46 567.004 531.114 567.473 542.068C567.456 546.142 567.681 556.155 567.301 559.796C567.076 563.299 567.464 565.695 565.197 568.156C564.222 565.075 564.417 558.657 564.4 555.169L564.399 524.267C564.412 518.907 564.584 512.705 564.018 507.352C563.822 505.493 561.72 504.692 559.956 503.569C562.105 502.716 563.725 502.857 566.038 502.798Z"/><path fill="#1E2A5E" d="M564.391 596.535C566.753 596.07 566.357 595.737 567.894 596.669L568.258 598.684C572.585 600.701 577.142 602.95 581.603 604.579C581.612 606.802 581.546 619.307 581.833 620.872C583.388 624.511 582.955 651.169 582.51 655.511L583.022 655.436C583.177 651.766 583.022 643.062 583.825 640.28C583.92 644.494 583.799 658.338 584.272 661.461C588.686 657.64 589.932 657.543 594.341 652.5L595.443 652.104C595.432 650.023 595.416 650.032 595.97 648.037C600.724 650.132 605.431 652.334 610.087 654.642C606.285 658.717 577.67 679.611 572.479 682.261C562.821 678.155 553.292 674.361 543.497 670.582C541.459 669.795 540.895 668.916 540.259 667.174C541.681 662.939 559.518 652.162 564.515 648.827C564.634 631.397 564.593 613.965 564.391 596.535Z"/><path fill="#209DB5" d="M568.258 598.684C572.585 600.701 577.142 602.95 581.603 604.579C581.612 606.802 581.546 619.307 581.833 620.872C581.301 631.085 581.756 645.644 581.788 656.185C576.787 653.904 573.224 652.114 568.4 649.474L568.258 598.684Z"/><path fill="#F5EAC3" d="M594.341 652.5L595.443 652.104L601.291 655.167C591.62 661.686 582.037 668.335 572.543 675.111C564.648 671.942 556.797 668.666 548.991 665.285C554.008 661.805 561.489 656.894 565.937 653.085C569.042 654.882 580.801 662.216 583.731 661.993L584.272 661.461C588.686 657.64 589.932 657.543 594.341 652.5Z"/><path fill="#F5EAC3" d="M559.956 503.569C561.72 504.692 563.822 505.493 564.018 507.352C564.584 512.705 564.412 518.907 564.399 524.267L564.4 555.169C564.417 558.657 564.222 565.075 565.197 568.156C567.393 568.624 578.116 572.849 581.107 573.922C601.404 581.205 621.512 589.703 641.47 597.919C642.032 584.425 641.55 570.748 641.682 557.249C641.741 551.141 641.355 543.227 642.018 537.331L646.548 538.994C645.728 542.641 646.014 557.881 646.025 562.182L646.095 605.796C617.626 593.221 588.814 581.436 559.693 570.455C559.742 548.887 559.189 524.893 559.956 503.569Z"/><path fill="#254371" d="M584.012 604.682C587.082 605.776 589.555 606.58 592.44 608.125C592.843 614.151 592.807 650.365 594.341 652.5C589.932 657.543 588.686 657.64 584.272 661.461C583.799 658.338 583.92 644.494 583.825 640.28C584.201 628.84 583.998 616.22 584.012 604.682Z"/><path fill="#F5EAC3" d="M560.304 576.164C589.524 587.301 617.625 600.217 646.488 611.736L646.702 619.773L645.235 619.855C643.025 619.976 635.244 620.499 633.473 620.003C625.155 617.672 616.26 613.536 608.188 610.185C595.885 605.077 583.328 600.351 571.342 594.635C566.949 592.54 563.502 590.511 559.898 587.284C559.919 583.706 560.16 579.769 560.304 576.164Z"/><path fill="#209DB5" d="M618.937 619.458C625.172 621.676 628.547 623.298 635.12 624.631L634.905 682.644C633.551 682.589 623.131 678.243 621.006 677.428C619.717 658.206 619.419 638.726 618.937 619.458Z"/><path fill="#F5EAC3" d="M672.874 559.29C678.012 562.284 681.022 563.825 686.419 566.26C686.441 581.532 686.378 596.804 686.23 612.075C681.387 609.714 677.624 607.969 672.583 605.956C672.596 591.637 672.099 573.286 672.874 559.29Z"/><path fill="#F5EAC3" d="M649.117 679.837C651.253 680.585 655.26 682.574 657.478 683.605L628.687 703.557L613.003 696.884L605.241 693.337L621.254 682.121C627.663 685.19 632.274 687.452 638.325 691.122C642.171 686.552 644.847 683.921 649.117 679.837Z"/><path fill="#F5EAC3" d="M538.956 517.823C543.779 521.035 545.845 521.892 551.208 524.059C550.211 530.815 549.715 553.919 551.423 560.933C552.034 563.443 552.846 562.704 552.117 565.486C547.878 563.626 543.393 561.264 539.227 559.177C538.054 552.061 539.012 526.725 538.956 517.823Z"/><path fill="#40E0D0" d="M686.18 534.115C689.194 534.35 695.367 535.738 697.299 538.11C696.951 543.127 691.137 542.859 688.502 547.163C686.726 550.065 687.453 559.772 685.823 561.93C681.937 559.99 672.452 556.194 671.953 551.883C670.998 543.624 678.766 535.781 686.18 534.115Z"/><path fill="#40E0D0" d="M544.326 591.796L543.866 592.513L543.282 592.418C543.699 579.095 539.347 583.537 537.483 572.347C536.219 564.762 536.694 565.245 539.974 560.994L539.056 560.161L539.227 559.177C543.393 561.264 547.878 563.626 552.117 565.486L552.084 567.393C550.596 568.699 551.176 568.304 548.76 568.435C554.401 571.582 552.368 576.065 552.605 582.048C551.204 584.008 546.135 590.687 544.326 591.796Z"/><path fill="#1E2A5E" d="M544.326 591.796L543.866 592.513L543.282 592.418C543.699 579.095 539.347 583.537 537.483 572.347C536.219 564.762 536.694 565.245 539.974 560.994L539.056 560.161L539.227 559.177C543.393 561.264 547.878 563.626 552.117 565.486L552.084 567.393C550.596 568.699 551.176 568.304 548.76 568.435C545.749 567.037 542.727 565.664 539.695 564.314C534.256 567.582 542.623 581.027 544.272 585.129C544.859 586.589 544.472 590.142 544.326 591.796Z"/><path fill="#40E0D0" d="M550.963 489.887C552.231 489.84 552.149 489.889 553.257 490.543C552.146 500.877 552.056 509.598 552.127 519.962C549.842 519.228 546.881 517.697 544.649 516.641C532.582 509.196 540.193 494.376 550.963 489.887Z"/><path fill="#40E0D0" d="M674.349 613.823C678.641 614.381 682.026 615.887 685.99 617.532C686.093 621.536 685.911 625.605 685.782 629.614C683.981 632.487 681.242 636.054 679.2 638.87L676.293 642.167L675.448 642.105C675.752 629.843 673.809 633.748 670.603 622.727C669.604 619.293 672.272 616.482 674.349 613.823Z"/><path fill="#1E2A5E" d="M377.113 660.244C392.501 659.203 421.914 672.945 436.872 678.779L507.229 705.84L566.635 728.417C579.319 733.054 591.949 737.84 604.521 742.772C622.901 749.775 655.812 758.709 658.44 782.572C661.27 808.276 634.011 821.6 612.016 824.376C611.937 824.388 611.858 824.4 611.778 824.411C604.437 825.137 597.025 824.416 589.961 822.289C578.718 818.898 563.067 812.441 551.732 808.097L481.811 781.125L395.644 747.94C381.412 742.46 367.007 737.027 352.84 731.389C349.587 729.7 343.187 726.931 340.652 724.47C327.057 711.273 328.741 693.985 340.437 680.281C350.845 668.087 361.277 662.053 377.113 660.244Z"/><path fill="#37C0C7" d="M376.32 662.218C382.211 661.755 388.135 662.446 393.761 664.252C405.515 667.964 423.083 675.429 434.892 679.999L513.165 710.043L597.433 741.884C616.608 749.24 652.976 757.722 656.426 782.306C659.879 806.918 633.182 819.301 612.682 822.45C594.805 825.184 566.533 811.868 549.387 805.264L480.809 778.86L390.275 743.876C377.903 739.054 365.593 734.347 353.126 729.468C342.909 725.803 333.968 717.382 333.133 705.849C331.441 682.488 355.689 664.846 376.32 662.218Z"/><path fill="#1E2A5E" d="M551.03 734.957C558.305 734.648 565.824 736.668 571.789 740.89C578.096 745.351 582.311 752.191 583.462 759.831C586.691 781.258 568.529 793.922 549.45 796.655C540.505 796.27 531.918 794.319 524.949 788.34C519.245 783.495 515.74 776.549 515.231 769.081C513.935 748.201 532.024 736.209 551.03 734.957Z"/><path fill="#FF8A6B" d="M549.465 744.811C554.818 744.485 560.957 746.111 565.262 749.364C569.469 752.487 572.221 757.192 572.879 762.391C574.561 776.579 562.811 785.042 549.924 786.383C539.387 786.392 528.556 781.508 526.264 770.233C525.271 765.315 526.321 760.205 529.172 756.077C534.138 748.759 541.209 746.282 549.465 744.811Z"/><path fill="#40E0D0" d="M368.271 691.575C371.453 691.787 408.563 706.216 412.117 708.059C422.788 713.591 500.681 740.865 504.421 745.984C504.888 748.328 504.348 749.067 503.468 751.425C498.44 750.049 489.462 746.374 484.409 744.428L446.978 729.703C422.047 719.843 396.918 709.996 372.015 700.045C369.906 699.202 368.773 698.651 367.366 696.882C366.9 694.144 367.284 694.355 368.271 691.575Z"/><path fill="#40E0D0" d="M590.716 774.902C595.128 775.296 629.499 787.726 632.285 789.898C633.1 792.709 632.617 792.655 631.843 795.719C627.095 795.79 594.999 783.824 590.954 780.592C589.876 778.5 590.35 777.273 590.716 774.902Z"/><path fill="#FF8A6B" d="M780.627 323.016C795.036 322.949 804.092 322.587 818.237 327.536C850.853 338.949 882.423 352.858 914.787 364.985C934.323 372.086 956.668 387.224 959.447 409.562C960.792 420.38 955.819 431.227 947.496 438.066C930.149 452.32 907.648 453.445 886.318 451.613C885.438 451.255 885.957 451.408 885.134 451.26C865.012 447.653 845.757 437.133 826.598 430.027C822.865 428.642 811.48 423.274 808.579 423.468C793.362 424.485 776.728 428.761 761.427 430.763C758.663 431.125 757.32 432.078 754.592 432.101C755.385 430.373 768.898 411.143 770.801 408.461C768.462 407.301 766.17 406.049 763.931 404.706C730.096 384.725 722.009 346.066 762.708 327.703C768.647 325.024 773.602 324.675 779.656 323.25L780.627 323.016Z"/><path fill="#1E2A5E" d="M785.586 362.394C796.076 366.008 908.461 408.819 911.371 411.516C911.762 414.065 911.614 413.304 910.273 416.086C898.73 411.41 786.263 368.928 784.106 366.809C783.97 364.314 784.112 364.967 785.586 362.394Z"/><path fill="#1E2A5E" d="M791.955 348.352C801.984 351.727 917.475 396.096 919.887 398.158C920.463 400.712 920.27 399.934 919.116 402.839C893.419 394.252 865.102 381.276 839.133 371.879C829.702 368.466 797.837 356.691 791.578 353.025C790.742 350.673 791.057 351.306 791.955 348.352Z"/><path fill="#1E2A5E" d="M778.047 376.315C781.86 377.07 899.845 422.761 901.449 423.932C902.047 425.96 901.812 425.376 900.605 427.91C895.086 427.603 780.901 383.28 777.749 380.916C776.912 378.639 777.248 379.191 778.047 376.315Z"/><path fill="#FF8A6B" d="M737.888 197.018C745.086 196.915 755.846 196.654 762.802 198.181C790.201 204.197 818.318 218.081 844.681 228.19C859.697 234.378 874.67 239.007 889.105 246.546C915.544 260.355 928.792 291.66 899.804 310.99C880.605 323.793 853.704 324.421 831.609 320.043C820.613 317.792 808.774 312.679 798.248 308.52C784.472 303.151 770.747 297.655 757.073 292.034C753.888 290.735 750.044 289.101 746.561 289.033C743.344 288.971 712.709 294.012 710.45 295.072C705.16 297.553 699.133 296.157 693.949 298.281C693.118 298.622 692.268 298.885 691.416 299.17L690.906 298.745C693.248 294.47 715.179 280.458 720.178 277.16L719.773 276.919C680.995 253.387 680.962 210.266 728.124 198.988C730.98 198.305 734.255 197.931 736.942 197.262L737.888 197.018Z"/><path fill="#1E2A5E" d="M728.803 247.752C731.597 248.013 735.095 248.922 738.555 250.343C778.601 266.792 819.612 281.441 859.408 298.326C860.913 298.964 860.725 301.297 860.73 302.532C856.032 303.601 840.219 296.29 834.885 294.159L799.128 279.986C777.19 271.28 750.516 261.899 729.482 252.356C727.951 250.389 728.418 251.103 728.803 247.752Z"/><path fill="#1E2A5E" d="M738.396 233.663C762.506 242.246 789.162 253.703 813.277 263.185L849.19 277.299C852.434 278.576 867.608 283.958 869.098 286.095C868.978 288.31 868.744 287.891 867.1 290.046C836.892 278.318 806.772 266.366 776.742 254.19C768.684 250.988 742.871 241.771 737.083 238.006C736.616 236.009 737.139 236.088 738.396 233.663Z"/><path fill="#1E2A5E" d="M748.766 222.329C754.304 222.323 863.492 266.029 875.62 271.603C877.152 273.656 876.744 272.749 876.595 275.819C874.173 276.11 872.939 275.935 870.666 275.053C848.743 266.549 827.081 257.366 805.202 248.747L769.341 234.816C763.457 232.517 754.727 229.372 749.273 226.565C747.968 224.733 748.39 225.305 748.766 222.329Z"/><path fill="#1E2A5E" d="M577.842 340.665C572.799 340.903 569.754 340.92 565.541 337.544C557.409 331.027 567.759 315.552 575.897 317.361C588.032 320.06 589.78 330.346 582.15 338.629C586.246 349.52 590.201 360.462 594.015 371.455C596.32 371.462 603.568 371.846 605.562 371.37C633.763 364.644 662.751 370.776 684.638 392.793C686.895 395.105 689.072 397.493 691.164 399.955C696.548 393.504 702.644 385.551 708.073 379.446L707.599 378.79C697.343 364.481 719.742 352.551 726.973 365.864C728.786 369.151 729.154 373.043 727.988 376.612C723.79 389.907 713.8 382.732 711.765 383.951C707.019 386.793 698.655 398.613 694.228 403.608C698.024 411.342 699.221 414.495 701.138 423.17C704.516 426.562 705.806 429.151 709.883 432.172C715.965 436.68 715.13 446.37 714.039 452.911C712.339 462.459 706.686 475.158 698.099 480.661C692.051 484.536 689.3 484.245 682.365 483.811C678.397 485.925 675.459 487.445 671.326 489.168C673.851 491.48 678.274 495.293 680.44 497.714C675.624 496.288 676.027 493.227 671.621 492.397C672.239 495.071 681.943 501.074 681.722 502.704L681.221 502.741C678.898 502.104 673.267 496.525 671.163 494.617C644.381 540.569 573.077 502.705 585.201 466.14L586.466 466.149C585.849 463.908 586.085 464.632 584.1 462.832L582.698 463.026C570.347 455.669 563.239 449.143 561.655 434.588C545.415 420.004 555.565 398.51 573.899 391.434C578.134 383.203 581.677 378.933 589.784 374.218C586.914 364.331 581.701 350.263 577.842 340.665Z"/><path fill="#ECCFB2" d="M621.502 373.547C626.836 373.101 630.957 373.149 636.297 373.978C656.248 377.169 674.186 387.973 686.34 404.118C671.768 419.983 662.893 430.501 660.848 453.389C659.74 465.798 662.062 473.515 670.079 482.93C659.218 484.321 655.576 484.281 644.974 481.542C622.261 473.945 599.763 466.553 579.284 453.331C574.224 450.064 568.825 444.519 568.11 438.392C566.53 424.851 572.5 409.032 580.305 398.375C590.195 384.954 605.018 376.021 621.502 373.547Z"/><path fill="#40E0D0" d="M576.983 436.412C573.559 430.056 578.777 394.748 587.692 396.836C602.9 400.397 642.118 415.043 652.734 425.305C655.041 430.183 652.76 436.057 650.893 440.861C648.229 447.544 644.332 462.774 636.756 465.553C627.695 468.877 610.406 460.907 601.913 457.172C592.054 452.838 579.203 447.852 576.983 436.412Z"/><path fill="#37C0C7" d="M651.478 431.272L652.043 432.231C652.132 429.683 652.165 428.372 652.633 425.83L652.734 425.305C655.041 430.183 652.76 436.057 650.893 440.861C648.229 447.544 644.332 462.774 636.756 465.553C627.695 468.877 610.406 460.907 601.913 457.172C592.054 452.838 579.203 447.852 576.983 436.412C580.248 439.576 580.686 444.576 583.867 445.299L584.142 444.999C581.782 441.839 579.208 436.202 579.508 432.178L579.934 430.257C591.402 434.236 603.062 439.177 614.212 443.997C622.699 447.666 634.46 451.371 640.38 458.554C644.141 451.445 648.998 435.2 651.478 431.272Z"/><path fill="#1E2A5E" d="M651.478 431.272L652.043 432.231C652.132 429.683 652.165 428.372 652.633 425.83L652.734 425.305C655.041 430.183 652.76 436.057 650.893 440.861C648.229 447.544 644.332 462.774 636.756 465.553C627.695 468.877 610.406 460.907 601.913 457.172C592.054 452.838 579.203 447.852 576.983 436.412C580.248 439.576 580.686 444.576 583.867 445.299L584.142 444.999C595.695 451.475 607.782 457.197 620.345 461.45C626.259 463.452 634.465 465.858 638.566 459.574C638.516 459.437 638.485 459.291 638.416 459.163C636.296 455.249 586.846 435.359 579.508 432.178L579.934 430.257C591.402 434.236 603.062 439.177 614.212 443.997C622.699 447.666 634.46 451.371 640.38 458.554C644.141 451.445 648.998 435.2 651.478 431.272Z"/><path fill="#1E2A5E" d="M576.983 436.412C573.559 430.056 578.777 394.748 587.692 396.836C602.9 400.397 642.118 415.043 652.734 425.305L652.633 425.83C652.165 428.372 652.132 429.683 652.043 432.231L651.478 431.272C651.463 430.557 651.408 428.365 650.992 427.871C645.399 421.232 591.163 397.572 585.828 400.214C582.404 404.417 577.572 426.253 579.934 430.257L579.508 432.178C579.208 436.202 581.782 441.839 584.142 444.999L583.867 445.299C580.686 444.576 580.248 439.576 576.983 436.412Z"/><path fill="#1E2A5E" d="M627.205 420.715C632.831 420.311 636.82 420.818 640.183 425.978C641.85 428.482 642.388 431.571 641.666 434.491C640.7 438.549 638.911 439.829 635.71 441.89C622.632 442.834 614.957 428.606 627.205 420.715Z"/><path fill="#37C0C7" d="M627.635 423.943C638.604 423.222 642.669 431.52 635.153 439.215C626.231 439.375 620.115 431.173 627.635 423.943Z"/><defs><linearGradient id="gradient_1" gradientUnits="userSpaceOnUse" x1="589.20007" y1="415.20358" x2="597.3075" y2="415.86752"><stop offset="0" stop-color="#07B1B9"/><stop offset="1" stop-color="#0FCDCC"/></linearGradient></defs><path fill="url(#gradient_1)" d="M588.437 409.224C589.398 407.156 589.675 406.974 591.682 405.889C600.343 404.565 604.245 418.202 600.456 422.827C596.918 427.146 581.446 423.949 585.526 414.656C586.757 413.593 587.69 410.892 588.437 409.224Z"/><path fill="#1E2A5E" d="M588.437 409.224C589.398 407.156 589.675 406.974 591.682 405.889C600.343 404.565 604.245 418.202 600.456 422.827C596.918 427.146 581.446 423.949 585.526 414.656C587.887 415.971 588.08 419.507 590.02 420.605C601.017 426.827 602.294 406.095 591.337 408.888C589.819 409.275 590.226 409.655 588.437 409.224Z"/><path fill="#40E0D0" d="M689.271 452.03C687.604 457.629 685.837 466.3 688.372 471.446C689.006 472.734 690.282 476.641 690.353 477.853L689.109 478.337C675.514 477.049 673.651 468.79 674.285 456.347C674.752 447.2 681.643 423.963 694.246 424.921C696.893 425.122 703.784 428.707 703.192 432.169C696.257 434.063 690.192 445.331 689.271 452.03Z"/><path fill="#254371" d="M703.192 432.169L703.867 433.333C706.115 433.144 706.532 432.533 708.442 434.095C718.504 442.323 705.325 476.804 694.076 477.428C686.069 472.451 693.46 457.319 689.271 452.03C690.192 445.331 696.257 434.063 703.192 432.169Z"/><path fill="#40E0D0" d="M715.082 365.751C718.719 364.606 722.599 366.608 723.774 370.237C724.949 373.865 722.98 377.763 719.363 378.969C715.702 380.189 711.748 378.191 710.559 374.519C709.369 370.847 711.401 366.909 715.082 365.751Z"/><path fill="#40E0D0" d="M571.938 323.132C575.39 321.561 579.463 323.082 581.04 326.533C582.617 329.983 581.103 334.059 577.656 335.642C574.201 337.23 570.114 335.711 568.533 332.252C566.952 328.793 568.477 324.708 571.938 323.132Z"/><path fill="#40E0D0" d="M566.833 400.465C568.166 401.464 567.145 403.899 566.45 405.195C562.404 412.741 563.542 420.544 561.772 427.99L560.799 428.257C554.435 418.907 558.49 407.064 566.833 400.465Z"/><path fill="#254371" d="M688.439 407.17C690.654 408.965 693.999 418.989 695.216 422.305C692.647 422.536 690.076 422.746 687.504 422.936L685.282 422.644L684.949 421.451L685.381 421.36C685.099 418.358 684.085 417.349 682.348 414.96C684.391 411.507 685.716 410.16 688.439 407.17Z"/><path fill="#254371" d="M589.621 380.748C591.416 380.743 592.046 380.402 593.219 381.239C587.095 385.897 584.065 388.957 579.388 395.025C578.583 395.849 579.071 395.516 577.681 395.682C574.955 388.698 584.218 383.013 589.621 380.748Z"/><path fill="#40E0D0" d="M745.927 78.1765C756.47 77.4229 763.266 80.2299 772.927 84.0566C785.558 89.06 798.246 93.9865 810.922 98.8801L922.809 142.515L1065.23 197.102C1088.88 206.16 1112.58 215.286 1136.19 224.442C1138.36 225.281 1141.56 227.038 1143.24 228.63C1145.14 230.439 1145.67 231.33 1145.75 233.815C1144.9 235.825 1123.69 263.649 1121.46 265.763L1120.22 265.668C1060.35 241.461 998.429 218.559 938.214 194.779C891.386 176.145 844.412 157.879 797.296 139.984C771.28 129.985 744.231 119.081 718.02 109.909C724.316 101.066 733.006 88.1612 740.75 80.4811C741.621 79.617 744.627 78.6068 745.927 78.1765Z"/><path fill="#1E2A5E" d="M886.463 146.525C896.021 146.792 942.319 168.94 954.566 172.559C957.333 173.377 959.128 174.957 959.214 178.008C958.107 180.407 957.544 180.545 955.253 182.107C948.202 181.92 890.746 160.491 883.449 155.9C881.04 151.187 882.937 149.742 886.463 146.525Z"/><path fill="#1E2A5E" d="M981.862 183.313C993.79 182.204 995.493 193.127 985.032 198.714C973.1 198.57 971.669 189.551 981.862 183.313Z"/><path fill="#CCC9C9" d="M1183.43 245.154C1185.42 257.366 1182.42 291.613 1182.18 304.545C1181.98 314.722 1157.66 343.156 1150.75 352.301L1080.33 443.751C993.143 556.642 904.91 668.719 815.641 779.968L725.599 893.7C713.206 909.202 685.889 947.317 670.813 957.191C655.084 967.494 632.457 972.493 613.969 968.4C604.4 966.281 595.294 962.269 586.194 958.714L548.165 943.749L433.101 899.538L300.905 848.811L254.887 831.512C238.372 825.275 222.353 822.258 212.543 806.809C207.31 795.546 209.043 775.448 209.09 762.017C219.66 775.396 231.048 777.44 246.445 783.088C258.389 787.438 270.296 791.893 282.162 796.451L455.402 862.628L559.856 903.444C572.055 908.192 592.512 917.318 604.528 920.751C615.971 924.006 628.066 924.207 639.611 921.334C650.02 918.851 665.099 912.778 672.106 904.526C680.887 894.184 689.935 882.518 698.473 871.875C719.639 845.352 740.628 818.689 761.44 791.888C825.335 711.275 888.547 630.122 951.069 548.44L1050.62 419.214C1060.09 406.926 1069.08 394.104 1078.67 381.955C1103.38 350.662 1127.73 319.088 1151.71 287.24C1162.1 273.553 1174.52 259.613 1183.43 245.154Z"/><path fill="#1E2A5E" d="M1063.04 421.4C1080.29 420.211 1083.28 435.924 1071.97 447.391C1063.06 456.427 1046.99 484.474 1036.64 489.505C1028.64 490.863 1018.37 484.152 1021.2 475.649C1022.71 471.107 1031.16 459.447 1034.64 455.708C1042.02 447.755 1054.56 426.492 1063.04 421.4Z"/><path fill="#FF8A6B" d="M1066.17 431.071C1068.37 432.525 1068.9 433.266 1068.91 435.84C1066.45 440.214 1056.67 452.222 1053.18 456.706C1048.65 462.533 1039.9 474.941 1035.06 479.708C1032.52 478.559 1032.75 479.155 1031.75 477.2C1033.42 472.853 1061.82 435.921 1066.17 431.071Z"/><path fill="#1E2A5E" d="M1137.21 331.422C1166.99 335.372 1114.14 391.31 1108.17 399.92C1106.17 402.799 1101.89 402.731 1098.44 402.697C1077.19 393.496 1098.73 375.22 1106.77 363.626C1113.69 353.637 1126.28 336.056 1137.21 331.422Z"/><path fill="#FF8A6B" d="M1136.5 341.051L1137.52 341.476C1137.95 343.023 1137.82 344.357 1137.36 345.88C1135.88 350.784 1105.75 391.6 1101.56 393.741C1100.16 392.55 1100.11 392.611 1099.21 390.913C1100.18 386.717 1132.02 345.819 1136.5 341.051Z"/><path fill="#FF8A6B" d="M947.206 629.051C949.557 630.243 960.369 639.527 963.195 641.974C975.701 652.803 990.045 663.81 1001.92 675.22C973.579 685.286 945.306 695.537 917.1 705.974C903.379 710.76 889.71 715.692 876.094 720.768C882.711 711.332 891.264 700.734 898.371 691.52L947.206 629.051Z"/></svg>