<svg xmlns="http://www.w3.org/2000/svg" width="18" height="24" viewBox="-0.00 18.36 180.25 237.64"><path d="M87.09 118.105q.96-.04 1.92-.065c10.998-.302 21.084 2.826 29.274 10.42 5.484 5.265 8.689 11.563 8.955 19.135.464 13.174-9.287 22.8-21.269 26.323-3.987 1.172-7.319 1.336-11.505 1.408-12.166.052-21.372.512-31.586-7.782-4.938-4.17-8.506-9.896-8.992-16.422-1.477-19.813 15.552-31.477 33.203-33.017m5.847 48.055c10.233.211 23.062-3.891 24.997-15.527 2.472-14.864-16.924-25.169-29.806-23.292-8.43.863-15.479 3.245-21.068 9.963-6.137 7.375-5.635 17.399 2.07 23.411 7.497 5.849 14.964 5.517 23.808 5.445"/><path d="M84.458 139.518c2.466-.338 3.849.509 6.035 1.498 2.48-1.555 7.954-3.149 7.942 1.94-.005 2.274-2.855 4.331-4.59 5.67q.23 2.447.514 4.888c-.709 3.757-5.022 4.459-7.443 2.14-1.325-1.269-.399-5.451-.195-7.129-3.07-2.194-7.88-5.931-2.263-9.007"/><path d="M135.47 119.598c9.801-.534 15.747 15.926 2.021 19.068-10.114.396-15.604-16.901-2.021-19.068"/><path d="M44.46 119.596c1.668-.091 3.94.549 5.358 1.453a8.06 8.06 0 0 1 3.574 5.166c1.185 5.59-3.05 11.332-8.529 12.507-2.02-.09-4.315-.692-5.987-1.861a7.85 7.85 0 0 1-3.3-5.196c-.747-4.395 1.87-9.761 6.105-11.447.852-.339 1.873-.475 2.778-.622"/><path d="M116.201 55.549c1.28-12.797 6.73-38.111 24.3-37.05 4.198.254 8.562 3.406 11.066 6.615 9.769 12.846 10.542 33.094 9.176 48.458-.193 2.16-.684 4.842-1.216 6.833 5.341 4.47 12.225 11.365 15.24 17.64 2.454 5.106 4.669 13.609 5.209 19.268 1.193 12.511-1.569 22.71-8.254 33.268 8.19 16.886 10.358 32.85 4.473 51.185-1.626 5.065-3.726 7.254-5.723 11.461 5.899 9.141 7.264 20.573 6.922 31.236-.108 3.348-.78 8.498-2.112 11.537h-13.315c-.419-3.118.987-6.088 1.446-9.288.968-5.46-.01-10-.57-15.427-.751-7.281-6.724-12.796-7.235-19.543-.174-2.297 3.538-6.51 4.729-8.53 3.957-6.713 5.802-15.421 5.412-23.158a57 57 0 0 0-2.856-15.385c-1.847-5.407-6.25-10.656-6.486-15.22-.126-2.446 4.549-7.167 6.008-10.041 2.266-4.464 3.579-8.35 4.016-13.407a39.57 39.57 0 0 0-9.093-28.757c-5.54-6.555-13.424-11.306-22.166-11.843-2.866-.176-5.809.432-8.64.301-.747-.034-2.376-.464-2.802-.993-1.223-1.516-2.134-4.043-3.145-5.81a32 32 0 0 0-3.115-4.438c-5.549-6.635-15.335-11.697-24.102-12.504-11.8-1.01-24.506 4.622-31.627 14.08-.599.795-1.132 1.807-1.623 2.55-.972 1.473-2.429 5.547-3.763 6.413-2.397 1.052-6.182.383-8.628.385-27.305.03-42.38 34.029-28.543 56.004 1.673 2.658 5.69 4.995 5.381 8.586-.338 3.922-3.604 7.439-5.049 11.059-5.587 13.246-6.257 29.472 1.116 42.189 1.642 2.832 4.54 5.067 4.675 8.585.287 4.533-3.294 7.861-4.852 11.724-2.75 6.818-3.912 15.619-2.91 22.911.503 3.652 1.79 5.776 1.47 9.557H5.688c-.315-.703-.816-2.199-.967-2.932-2.683-13.05-1.148-28.51 5.778-39.923C.307 196.899-.897 178.791 4.921 160.569c1.057-3.312 2.75-6.49 4.093-9.712-3.618-5.267-6.18-10.796-7.553-17.074-.425-1.943-.807-6.036-1.461-7.646v-7.277l.03-.08c.781-2.153 1.276-7.199 2.02-10.027 3.141-11.937 9.962-20.575 19.317-28.376-3.446-15.551-2.178-38.666 6.261-52.758 4.64-7.746 14.02-12.442 22.215-6.73 10.453 7.283 13.448 22.534 14.968 34.374 18.072-9.905 33.413-9.607 51.39.286m23.328 16.623c2.803.414 4.671.742 7.428 1.597 1.35-11.588 1.032-23.467-3.043-34.524-.805-2.186-2.827-6.235-5.15-7.11-7.572 7.199-9.055 22.699-9.497 32.616-.098 2.212.068 4.258 1.497 6.032 1.371.797 6.731 1.076 8.765 1.39M34.121 73.617c2.427-.822 5.496-1.191 8.069-1.558 2.896-.383 4.79-.63 7.712-.659 1.96-2.88 1.71-4.932 1.676-8.33-.072-7.357-2.584-26.096-9.11-30.482a4.8 4.8 0 0 0-.93-.489c-8.251 9.4-9.596 29.677-7.417 41.518"/></svg>