<svg xmlns="http://www.w3.org/2000/svg" width="24" height="23" viewBox="28.85 33.48 238.91 227.52"><path d="M207.598 33.692c4.882-.726 11.872.52 16.472 2.308 23.187 9.013 35.988 35.83 31.252 59.775-.938 4.744-2.807 9.154-4.592 13.614 3.007 6.648 3.594 11.34.17 18.073-8.422 16.561-25.624 30.691-43.302 36.645.127.59.233 1.21.345 1.805 11.585 1.436 31.5-7.617 40.179-14.336 13.092-10.135 9.773-20.275 10.941-33.22 1.071 1.387 2.29 2.686 3.416 4.039 8.227 9.886 6.176 21.507-1.572 31.047-12.602 15.516-34.068 21.976-53.31 24.18-.505 1.313-.96 2.741-1.48 4.105 7.215.92 14.346 1.245 21.593.424 3.266-.37 6.556-1.248 9.827-1.406 18.595-.9 28.897 20.753 29.669 36.564.953 19.546-10.924-3.05-13.101-9.044-2.657-7.317-4.169-14.817-14.03-16.51-3.138-.538-6.315.467-9.407.924-11.59 1.714-18.235.141-28.961-.781l-.751 1.055c8.288 4.367 16.318 5.555 24.991 7.922 16.198 4.42 20.21 20.307 15.93 35.088-.634 2.19-4.675 14.947-8.096 13.158-5.018-2.625-.74-19.014-.57-23.683.407-11.104-7.352-13.73-15.873-15.742-8.161-1.927-16.188-4.685-23.732-8.344-1.305 1.26-2.464 2.402-3.875 3.544 10.194 10.652 28.35 10.843 27.037 33.087-.16 2.73-4.4 26.52-9.19 22.115-5.648-7.646-.73-18.077-1.472-25.085-.914-8.619-6.193-10.527-12.756-14.35-3.941-2.294-9.243-6.224-12.777-9.273-13.904 8.42-37.998 9.342-53.655 4.713-3.96-1.17-7.524-3.068-11.273-4.713-6.146 5.756-21.19 13.14-23.908 19.066-3.128 6.82-.25 11.95-.29 18.944-.018 2.164-1.202 16.335-5.533 9.966-6.152-9.049-8.05-22.978-3.87-33.264 3.881-10.588 16.681-14.253 24.65-21.206-.814-.863-2.154-1.95-3.08-2.842-5.826 2.544-12.297 4.557-18.402 6.335l-7.86 2.233c-4.759 1.311-8.242 1.409-11.128 5.723-6.506 9.387 1.542 19.947-1.034 29.971-3.326 12.94-24.451-27.732-.94-42.847.714-.46 1.627-.758 2.427-1.03 8.91-2.637 20.803-5.244 29.173-8.99l.18-.08c-.424-.687-.579-.875-1.126-1.471-5.24.821-8.982 1.161-14.244 1.47-4.21-.095-8.473-.11-12.657-.598-4.281-.5-9.308-2.31-13.542-.894-7.874 2.631-9.746 9.068-12.308 16.139-.847 2.34-11.494 26.007-13.117 13.778-1.075-8.1 4.374-24.683 9.293-31.102 6.358-8.296 14.892-11.124 24.774-9.473 8.971 1.498 18.11 1.713 27.136.509-.466-1.638-.954-3.294-1.369-4.944-17.876-.25-38.326-8.276-51.193-20.897-11.864-11.637-11.809-26.369.424-37.53-1.879 9.824.484 23.257 7.508 30.477 8.618 8.86 27.38 16.218 39.813 17.052 1.632.11 5.006-.489 2.026-1.661-17.066-6.731-53.715-33.709-41.515-55.734-13.06-29.46.377-67.562 33.732-74.207 5.528-1.101 15.555-1.162 20.293 2.102-6.337 1.452-16.85 8.139-21.371 12.825-7.73 8.008-9.48 16.41-9.351 27.05 2.79-1.192 5.644-1.949 8.465-3.285 15.16-7.18 18.757-15.92 27.072-28.335 5.803 9.99 2.918 25.342-1.8 35.315C97.28 91.99 84.867 104.69 72.071 109.39c6.416 14.247 18.157 27.082 32.093 34.26 2.966-1.641 8.415-5.18 10.995-7.149-4.929-15.71 5.342-30.388 21.951-31.22-.989 2.57-3.07 6.07-4.509 8.395 3.246 3.697 5.093 7.254 6.372 11.985 6.314-.737 11.715-1.467 18.121 0 1.485-4.488 3.151-8.574 6.573-11.985-1.267-2.982-2.98-4.527-4.167-8.395 15.932 1.166 27.042 15.82 21.895 31.22 3.754 2.5 7.353 4.307 11.28 7.148 13.258-6.309 26.407-20.8 32.096-34.259l-.417-.163c-4.536-1.817-8.33-4.44-12.26-7.26-17.65-12.672-29.024-36.14-20.586-57.326 2.068 3.085 3.832 6.512 5.947 9.73 6.764 10.296 18.088 18.74 30.1 21.89.828-21.73-11.588-33.841-31.434-39.875 2.965-1.473 8.125-3.108 11.477-2.693m-57.755 174.74c21.112.086 40.93-11.83 47.332-32.726 1.255-4.099 1.404-7.118-.802-10.887-6.47-11.871-12.468-14.927-23.78-21.604-9.749-5.6-14.06-9.032-26.136-8.133-13.506.495-48.125 20.138-48.233 35.579.245 8.081 8.232 20.026 14.557 25.279 11.412 10.067 22.509 12.59 37.062 12.493m54.1-132.171c2.884 5.97 5.382 8.137 9.372 12.96 8.82 7.281 16.595 12.9 28.754 13.226 6.62-12.34 3.584-32.535-5.44-42.94l-.115-.054c1.709 7.539 2.035 13.9 1.055 21.585-.898 7.04-3.27 8.426-10.094 6.508-7.536-2.117-17.633-6.08-23.531-11.285M54.736 102.447l.195-.043c12.242-2.618 18.488-3.072 28.582-13.183 4.407-4.418 5.902-6.959 8.858-12.41-6.646 5.009-13.478 7.677-21.409 10.016-4.465 1.317-8.993 3.228-10.948-2.953-2.417-7.64-2.056-15.565-.51-23.334a.5.5 0 0 0-.152-.465c-9.747 12.521-9.912 28.156-4.616 42.372m1.026 10.393c-3.043 4.304-2.324 6.58.116 10.942 7.025 12.564 20.817 24.987 34.362 29.966 1.038.402 1.795.664 2.862.978.989-1.121 1.863-2.108 2.928-3.167-13.202-7.718-24.354-20.075-31.462-33.495-.874-1.65-2.155-6.03-3.765-5.624-1.76.097-3.288.187-5.04.4m70.306 9.502c-1.353 2.7-1.388 4.875-1.276 7.894a26 26 0 0 1 1.865-.456c.53-.349 1.847-1.279 2.357-1.48-.486-1.435-1.702-4.997-2.946-5.958m77.12 32.384c1.73-.912 2.568-1.234 4.41-1.857 13.975-6.56 28.567-17.482 35.012-32.256.865-1.985-.865-5.906-1.722-7.773-1.202-.025-4.862-.204-6.015-.4l-.06.11c-1.406 2.649-2.348 5.707-3.968 8.485-7.78 13.338-17.019 22.414-29.888 30.524.96 1.17 1.43 1.893 2.23 3.167m-33.064-24.946 1.962 1.02c-.01-2.154-.506-6.788-1.962-8.458-1.376 1.977-2.074 3.766-3.036 5.958z"/></svg>