<svg xmlns="http://www.w3.org/2000/svg" width="24" height="24" viewBox="0.00 0.00 301.00 301.00"><path fill="#fff" d="M142.642 0h15.613c2.396.752 6.737.513 9.38.837 6.874.85 13.688 2.128 20.402 3.825a150.87 150.87 0 0 1 93.527 71.751 152.3 152.3 0 0 1 17.782 50.962q.72 4.522 1.059 9.088c.114 1.688.262 6.261.595 7.642v12.532c-.675 2.289-.518 7.505-.794 10.2a146 146 0 0 1-3.349 19.125 151.33 151.33 0 0 1-69.697 94.058 150.3 150.3 0 0 1-51.781 18.955q-4.9.835-9.846 1.323c-1.704.157-5.55.345-6.985.702h-16.07c-1.055-.292-1.756-.32-2.856-.402-4.698-.355-9.461-.821-14.107-1.632a151.9 151.9 0 0 1-51.517-18.808 149.98 149.98 0 0 1-69.563-93.215 161 161 0 0 1-3.681-20.306c-.295-2.597-.111-7.421-.754-9.583v-13.445c.365-1.367.443-5.722.603-7.416.319-3.383.71-6.574 1.26-9.942a150.8 150.8 0 0 1 19.15-52.818A149.55 149.55 0 0 1 113.717 4.4 169 169 0 0 1 132.899.94c2.6-.303 7.516-.292 9.743-.939"/><path d="M142.956 64.29c2.297-.19 7.05.383 9.413 1.01 11.821 3.132 19.07 9.301 25.232 19.465a39.94 39.94 0 0 1 29.157 2.783 36.42 36.42 0 0 1 18.22 21.48c3.79 11.816 1.43 21.5-3.992 32.093 7.343 7.434 11.573 16.314 12.097 26.835a36.05 36.05 0 0 1-9.478 26.358c-8.459 9.248-17.836 11.971-29.805 12.543-1.532 6.386-4.979 12.638-9.396 17.472a38 38 0 0 1-26.172 12.303 41.7 41.7 0 0 1-9.606-.977c-11.447-2.593-19.205-9.812-25.288-19.445-10.903 2.427-20.317 2.213-30.404-3.46a36.1 36.1 0 0 1-17.344-22.069c-3.04-10.872-1.034-21.176 4.425-30.842-7.586-7.7-11.65-16.23-12.197-27.122a36.28 36.28 0 0 1 9.403-25.93c8.327-9.161 18.067-12.155 29.976-12.698.98-5.345 4.894-12.363 8.423-16.428 7.5-8.638 16.184-12.433 27.336-13.37"/><path fill="#fff" d="M174.376 148.01c3.223 1.397 7.256 3.827 10.358 5.607l-.007 30.372c.011 4.944.274 12.681-.294 17.37a28 28 0 0 1-1.946 7.274 28.9 28.9 0 0 1-15.87 15.893c-7.498 3.085-14.093 2.146-21.348-.87-5.536-2.464-9.267-6.724-12.544-11.654 4.979-2.726 10.12-5.817 15.06-8.67l27.543-15.893c-.21-10.737-.895-21.497-.98-32.244-.018-2.287-.172-4.913.028-7.186"/><path fill="#fff" d="M142.521 74.575c1.772-.235 4.74-.047 6.497.332 8.58 1.852 14.448 6.944 19.19 14.004-4.55 2.989-10.812 6.29-15.641 9.06l-26.91 15.535.616 23.656q.26 7.944.404 15.89a434 434 0 0 1-10.416-5.67l.002-28.99c-.015-5.553-.385-16.163.723-21.296a29.8 29.8 0 0 1 5.989-12.34c5.179-6.438 11.445-9.311 19.546-10.181"/><path fill="#fff" d="M104.426 104.405c.312-.051 1.317-.065 1.684-.079l-.002 49.25c3.807 1.72 8.497 4.672 12.32 6.701 7.446 3.953 15.094 7.867 22.336 12.16l-10.059 6.13c-3.315-2.055-6.962-4.081-10.36-6.036l-17.78-10.288c-4.107-2.327-9.821-5.271-13.444-8.082a29.1 29.1 0 0 1-10.922-19.499 26.44 26.44 0 0 1 5.648-19.928c5.273-6.607 12.378-9.438 20.579-10.329"/><path fill="#fff" d="M88.254 165.86c4.866 2.496 10.043 5.747 14.812 8.52l27.855 16.075a2982 2982 0 0 1 33.652-20.592c.354 3.435.303 8.231.347 11.763-1.931 1.023-4.092 2.33-6.013 3.428-6.276 3.737-12.62 7.294-18.95 10.953-5.625 3.252-11.498 7.162-17.498 9.675-6.844 2.865-15.494 2.246-22.251-.681A26.12 26.12 0 0 1 86.284 190.5c-3.577-9.073-1.775-16.12 1.97-24.64"/><path fill="#fff" d="M170.118 122.418c1.185.451 4.2 2.297 5.432 3.017l10.2 5.952 14.153 8.158c3.454 1.948 8.108 4.394 11.208 6.698a29.3 29.3 0 0 1 6.969 7.34 28.47 28.47 0 0 1 4.308 21.491c-1.623 8.307-6.23 13.1-13 17.651-4.426 2.757-9.39 3.618-14.5 3.94l.003-49.233c-4.613-2.258-8.733-4.802-13.23-7.22-7.19-3.864-14.326-7.652-21.432-11.678 3.149-2.107 6.627-4.141 9.89-6.116"/><path fill="#fff" d="M186.491 93.535a28.65 28.65 0 0 1 14.095 2.346c13.5 6.08 19.401 21.254 13.892 34.996a88 88 0 0 1-1.835 4.237c-5.758-3.428-11.785-6.812-17.6-10.172l-24.97-14.402c-2.753 1.235-7.72 4.651-10.533 6.384l-23.237 14.254c-.21-4.058-.01-7.553-.368-11.803 9.443-5.177 18.722-10.942 28.134-16.215 8.019-4.493 12.776-8.615 22.422-9.625"/><path fill="#fff" d="m150.474 135.043 13.391 7.777.007 15.333-13.303 7.69c-3.488-1.611-9.91-5.63-13.432-7.704l-.021-15.37c4.407-2.434 8.982-5.19 13.358-7.726"/></svg>