<svg xmlns="http://www.w3.org/2000/svg" width="24" height="23" viewBox="35.16 37.91 226.22 221.42"><path d="M147.394 37.916c2.548 0 4.613-.058 7.1.571 13.488 3.41 17.25 10.353 23.862 20.89a1037 1037 0 0 1 8.623 13.821c1.186-.02 4.045-.475 5.377-.63a333 333 0 0 0 9.642-1.184c7.474-1.02 14.106-2.216 21.545.26a30.5 30.5 0 0 1 17.5 15.326c2.834 5.72 3.68 13.489 2.273 19.705-.839 3.705-2.556 8.419-3.787 12.116l-4.403 13.584 11.32 11.18c5.456 5.377 10.006 8.633 12.942 16.212a30.23 30.23 0 0 1-.582 23.008 29.26 29.26 0 0 1-10.447 12.614c-3.637 2.436-10.83 4.832-15.064 6.358a1409 1409 0 0 0-15.278 5.649c-.056 1.646-.347 3.395-.55 5.043l-1.007 8.375c-.454 3.886-1.12 11.929-1.943 15.34a29 29 0 0 1-3.238 8.03 30.37 30.37 0 0 1-18.765 14.091c-11.988 3.04-19.441-.952-29-7.316-4.702-3.13-10.07-6.627-14.918-9.505-.338-.162-.49-.3-.935-.056-1.764.969-3.622 2.224-5.308 3.31a468 468 0 0 0-7.769 5.054c-2.822 1.903-6.034 4.172-9.03 5.773a32.7 32.7 0 0 1-9.413 3.328c-14.66 2.88-31.073-7.701-34.23-22.487-1.179-5.524-1.34-11.94-2.17-17.59-.554-3.774-.611-7.572-1.348-11.42-3.686-1.265-7.826-2.85-11.485-4.273-6.773-2.756-14.788-4.479-20.611-9.068-12.67-9.984-14.98-29.65-4.595-42.084 1.98-2.37 4.294-4.525 6.528-6.68l7.343-7.142c1.603-1.55 4.576-4.097 5.837-5.776-.596-1.452-1.246-3.646-1.755-5.199l-3.394-10.573c-1.14-3.555-2.67-6.997-3.343-10.706-2.108-11.63 2.007-22.395 11.284-29.62 10.005-7.793 19.913-6.538 31.524-4.685 4.487.715 9.197 1.176 13.728 1.7.336-.688 1.34-2.187 1.783-2.893l3.476-5.588c3.044-4.92 7.763-13.412 11.546-17.392a30.03 30.03 0 0 1 21.135-9.47M116.916 89.14c-3.306 5.133-7.633 11.006-11.325 15.843a414 414 0 0 1-26.718 31.437c1.546 4.355 2.974 10.17 4.178 14.727a386 386 0 0 1 6.896 29.877 209 209 0 0 1 1.57 9.466c.273 1.854.476 4.152.942 5.922 8.948 3.44 17.583 7.514 26.277 11.539 2.76 1.277 6.115 3.189 8.643 4.303 6.58 3.415 14.424 7.552 20.705 11.467 1.857-.945 3.677-2.132 5.505-3.15 16.063-8.948 33.11-17.77 50.376-24.125.381-1.496.48-2.801.723-4.302 3.012-18.655 7.503-37.742 12.873-55.793-12.356-13.768-24.505-27.335-34.943-42.665-.407-.598-2.98-4.477-3.246-4.58-2.868.065-5.832.397-8.705.603-10.55.755-21.233.793-31.81.613-7.234-.122-14.71-.853-21.94-1.182m113.077 59.862c-.892 3.58-1.95 7.159-2.881 10.74a511 511 0 0 0-3.31 13.938 278 278 0 0 0-2.02 9.926c-.343 1.928-.626 4.267-1.025 6.12 2.555-1.118 5.711-2.05 8.368-3.002.515-.184 3.142-1.112 3.523-1.199 3.668-1.314 7.182-2.346 9.854-5.364 3.6-4.065 4.604-9.355 2.762-14.47a13 13 0 0 0-1.95-3.58c-2-2.616-5.77-5.908-8.212-8.247-1.441-1.38-3.669-3.642-5.11-4.862M63.853 185.49c2.423.837 4.851 1.668 7.274 2.511 1.43.498 3.232 1.332 4.649 1.723-.383-3.19-1.395-7.624-2.052-10.824a352 352 0 0 0-6.132-25.8c-.124-.46-.975-3.84-1.158-4.023-2.757 2.288-12.78 12.111-14.319 14.705-.985 1.66-1.561 3.65-1.75 5.566-.337 3.693.79 7.37 3.137 10.24 2.936 3.544 6.203 4.395 10.35 5.902m154.65-71.065c1.263 1.447 3.399 4.01 4.763 5.154l.028-.153c.258-1.329.743-2.622 1.089-3.926 2.14-8.058 7.244-15.71 1.996-23.624a14.5 14.5 0 0 0-9.135-6.112c-1.25-.244-3.331-.31-4.578-.141-4.462.25-10.91 1.383-15.562 1.997 3.475 4.419 6.546 8.976 10.156 13.473 3.56 4.433 7.825 8.995 11.243 13.332M163.56 232.612c1.949 1.253 5.125 3.43 7.025 4.48 6.508 3.722 10.463 8.358 18.539 6.161a14.72 14.72 0 0 0 8.935-6.932c2.7-4.83 2.608-16.22 3.715-22.247l-.089-.146c-3.522 1.304-7.603 3.161-11.045 4.732a325 325 0 0 0-27.08 13.952M73.543 119.661c1.142-1.79 4.612-5.31 6.151-7.182 4.016-4.727 8.203-9.637 11.991-14.564l4.807-6.355c.88-1.171 2.1-2.93 3.099-3.922l-9.131-1.22c-2.688-.37-6.936-1.081-9.555-.797-3.846.294-7.19 1.872-9.706 4.82a14 14 0 0 0-3.362 10.28c.28 3.176 1.95 7.518 2.95 10.684.792 2.514 1.82 5.834 2.756 8.256m21.397 94.207q.443 4.716.93 9.425c.694 6.834.483 12.596 6.177 17.367a13.38 13.38 0 0 0 10.028 3.073c4.807-.47 10.114-4.23 14.134-6.93 1.92-1.238 4.789-3.19 6.733-4.199-2.358-1.614-6.602-3.693-9.234-5.074a500 500 0 0 0-19.916-9.77c-2.941-1.346-5.919-2.566-8.852-3.892m52.301-160.592c-7.589.959-10.27 4.859-13.941 10.944-2.02 3.348-4.239 7.078-6.43 10.29 4.908.238 9.792.748 14.718.636 2.6-.058 5.318.149 7.903.033 3.716-.057 7.45-.042 11.16-.183 3.062-.117 6.082-.409 9.153-.484-2.226-2.984-4.71-7.085-6.679-10.28-4.042-6.558-7.405-11.257-15.884-10.956"/></svg>