<svg xmlns="http://www.w3.org/2000/svg" width="297" height="297" viewBox="0 0 297 297"><path d="M33.86 93.45c6.612-.485 9.565 5.056 14.784 7.993 5.354 3.013 8.946-.282 13.437-3.01 4.568-2.776 8.773-4.33 14.126-4.467 15.095-.382 18.756 15.356 43.504 6.096 3.376-1.26 6.48-2.791 9.95-3.833 15.364-4.614 35.124.037 41.075 16.493 3.534 9.894 5.872 19.538 19.457 20.349 9.6.642 15.984-7.024 24.77-9.46 15.794-4.38 31.54 3.216 45.782 9.234 5.01 2.733 3.628 10.019-1.892 11.303-7.492.42-22.075-12.996-38.833-9.985-8.03 1.443-13.71 7.614-21.503 9.695-14.603 3.902-31-4.68-36.307-18.841-2.653-7.082-1.605-11.477-9.657-16.017-12.448-7.018-23.624 1.057-34.687 4.087-14.38 3.94-22.898 1.285-35.007-5.367-10.853-5.962-15.885 3.582-25.279 6.286-10.543 3.034-16.696-4.27-25.333-8.91-5.232-2.809-4.063-10.279 1.614-11.645"/><path d="M146.8 64.253c17.357-1.202 19.414 11.367 32.61 11.655 10.676.233 20.921-8.654 32.795-10.234 6.313-.84 11.46.48 17.63.986 3.176.26 7.024-.214 10.272-.308 5.96-.174 26.7 3.27 27.45 10.991.323 3.332-2.624 6.936-6.107 6.524-2.576-.304-5.256-2.04-7.689-2.994-9.643-3.786-12.909-2.439-22.875-2.476-4.999.025-9.869-1.335-14.886-1.34-8.626-.007-15.828 5.198-23.686 8.014-9.97 3.573-21.291 3.496-30.064-2.974-11.774-8.717-9.176-5.838-22.513-5.472-2.966.815-6.603 1.716-9.257 3.078-5.405 2.775-10.39 6.548-16.6 7.355C94.073 89.63 90.07 75.795 78.331 76.63c-9.416.249-21.809 19.19-37.485 5.5-1.044-.912-3.994-3.413-5.107-4.013-2.67-1.44-5.885-1.447-6.18-5.513-.323-3.455 1.554-6.501 5.226-7.01 6.999-.968 10.894 8.238 17.487 8.974 6.252.749 10.277-4.212 15.375-6.805 21.399-10.888 28.157 9.478 43.24 7.743 6.08-.7 9.174-4.066 14.566-6.36 6.463-2.75 14.35-4.478 21.347-4.893"/><path d="m33.125 150.22.552-.025c8.521-.403 13.95 10.334 21.829 10.725 3.69.184 9.072-4.567 12.757-6.074 18.99-7.77 25.378 7.37 40.705 7.37 9.538 0 15.172-1.846 23.515-6.154 9.11-4.703 21.745-6.05 30.966-.987 5.868 3.221 10.903 9.281 18.149 9.553 9.503.242 17.646-6.806 26.696-8.863 10.152-2.482 18.963-.18 28.966-.886 7.288-.513 17.944.266 23.845 4.625 3.312 2.447 1.494 10.49-4.62 10.415-1.054.118-3.405-1.018-4.425-1.527-6.466-3.231-13.261-1.613-20.102-1.755-7.83-.163-15.218-2.438-23.07-.21-15.304 4.34-25.455 18.063-42.916 4.732-17.572-13.415-20.144-6.9-37.916-.05-9.374 3.612-22.546 4.255-31.94.565-3.764-1.537-7.619-3.982-11.3-5.716-10.22-4.813-14.207 2.585-22.914 5.953-13.56 5.466-18.844-5.455-28.388-9.412-6.912-2.866-6.741-10.14-.389-12.28"/><path d="M220.795 207.504c10.096-.958 29.532 4.43 38.515 9.526 3.551 2.363 2.192 8.613-1.49 9.91-4.304 1.513-10.11-2.857-14.307-3.929-10.548-2.693-19.388-6.773-30.698-2.328-13.275 6.443-27.463 15.344-42.543 8.055-6.285-3.038-8.574-6.112-16.384-6.167-8.128-.058-10.683 2.203-17.614 5.14-9.795 4.152-24.135 5.527-34.032 1.094-14.255-6.223-10.861-11.969-28.706-3.607-10.853 4.703-22.717 5.827-34.107 2.306-5.18-1.602-10.02-5.876-5.456-10.816 2.808-3.04 6.032-1.939 9.316-.653 19.415 6.872 27.517-6.734 42.308-7.195 11.26-.351 17.196 9.56 27.667 10.811 4.87.582 13.354-.315 17.8-2.393 12.022-5.616 23.305-9.928 36.286-3.826 6.108 2.871 10.763 6.817 17.952 5.795 14.096-1.078 21.391-10.915 35.493-11.723"/><path d="M34.583 180.843c7.111-1.516 13.183 15.823 33.472 5.918 11.867-5.793 20.256-9.866 32.97-.735 2.34 1.68 4.632 3.707 7.067 5.085 12.696 7.181 20.899-5.774 30.969-8.525 16.11-4.58 21.543 4.928 33.47 9.494 8.371 3.205 6.668 11.177.152 12.398-4.323.674-14.175-6.594-18.03-8.745-10.555-5.89-16.133.31-24.977 5.494-7.956 4.665-19.548 5.26-27.41.253-8.045-5.02-13.367-12.61-24.203-6.886-15.716 8.303-26.33 11.319-42.19-.287-1.248-.913-3.058-1.533-4.29-2.538-4.293-3.444-2.648-10.315 3-10.926"/><path d="M82.483 123.343c13.946-1.04 17.433 9.151 26.201 11.393 8.04 2.276 12.73-3.66 19.144-7.26 22.514-12.64 24.593 8.203 14.128 7.956-7.425-.175-12.164 5.26-18.196 8.57-9.158 5.015-14.838 2.739-23.464.197l-.18-.051c-2.281-1.841-5.07-3.489-7.34-5.367-7.438-6.152-13.383-2.907-20.574.54-10.667 4.97-21.266 3.508-31.726-1.242-5.427-2.464-9.744-4.887-5.285-11.702 3.049-4.66 8.315-.003 11.32 1.25 17.386 7.886 21.51-3.039 35.972-4.284"/><path d="M220.288 89.078c15.575-1.88 24.187 7.558 35.454 16.011 2.613 2.137 6.118 2.895 8.862 4.642 4.455 2.838 1.473 10.994-3.472 10.665-6.74-.447-13.772-6.148-18.681-10.414-9.745-8.883-14.748-11.179-28.573-8.071-5.236 1.177-10.274 2.685-15.421 4.219-5.017 1.495-10.173-4.088-6.641-8.65 3.27-4.1 23.456-7.674 28.472-8.402"/><path d="M228.2 177.078c13.987-.372 19.454 5.514 29.825 13.494 2.23 2.01 4.912 2.903 7.333 4.472 4.036 2.614 2.566 19.1-16.2 3.513-11.068-8.273-14.356-12.682-29.824-8.303-3.545 1.003-7.174 3.457-10.525.617-2.593-2.196-2.81-6.36-.461-8.81 2.864-2.99 15.403-4.834 19.851-4.983"/></svg>